<svg width="40" height="40" viewBox="0 0 40 40" fill="none" xmlns="http://www.w3.org/2000/svg">
<rect width="40" height="40" rx="20" fill="#45D7DF"/>
<path fillRule="evenodd" clipRule="evenodd" d="M17.0399 26.5991C17.1899 26.7491 17.3799 26.8191 17.5699 26.8191C17.7599 26.8191 17.9599 26.7491 18.0999 26.5991C18.3899 26.3091 18.3899 25.8291 18.0999 25.5391L13.3099 20.7491H28.4999C28.9099 20.7491 29.2499 20.4091 29.2499 19.9991C29.2499 19.5891 28.9099 19.2491 28.4999 19.2491H13.3099L18.0999 14.4591C18.3899 14.1691 18.3899 13.6891 18.0999 13.3991C17.8099 13.1091 17.3299 13.1091 17.0399 13.3991L10.9699 19.4691C10.6799 19.7591 10.6799 20.2391 10.9699 20.5291L17.0399 26.5991Z" fill="#FEFEFE"/>
</svg>
