<svg width="43" height="43" viewBox="0 0 43 43" fill="none" xmlns="http://www.w3.org/2000/svg">
<g filter="url(#filter0_d_7571_17908)">
<rect x="3.5" y="0.5" width="39" height="39" rx="7.5" stroke="url(#paint0_linear_7571_17908)" shape-rendering="crispEdges"/>
<g clip-path="url(#clip0_7571_17908)">
<path d="M23 32C29.6274 32 35 26.6274 35 20C35 13.3726 29.6274 8 23 8C16.3726 8 11 13.3726 11 20C11 26.6274 16.3726 32 23 32Z" fill="#5C2D91"/>
<path opacity="0.1" d="M14.6825 11.375C13.4627 12.4621 12.4776 13.7868 11.7878 15.268C11.098 16.7492 10.718 18.3557 10.671 19.989C10.624 21.6223 10.9111 23.2479 11.5146 24.7663C12.1181 26.2848 13.0254 27.6639 14.1807 28.8193C15.3361 29.9747 16.7153 30.8819 18.2337 31.4855C19.7521 32.089 21.3778 32.376 23.0111 32.3291C24.6443 32.2821 26.2508 31.902 27.732 31.2122C29.2133 30.5224 30.538 29.5374 31.625 28.3175L14.6825 11.375Z" fill="white"/>
<path d="M13.7749 21.9687C13.7049 21.9698 13.6354 21.9564 13.5709 21.9293C13.5063 21.9021 13.4481 21.8619 13.3999 21.8112C13.3503 21.7622 13.3112 21.7038 13.2848 21.6394C13.2584 21.5749 13.2452 21.5058 13.2461 21.4362C13.2456 21.3666 13.259 21.2976 13.2854 21.2333C13.3118 21.1689 13.3507 21.1104 13.3999 21.0612C13.4476 21.0096 13.5057 20.9685 13.5703 20.9408C13.6349 20.913 13.7046 20.8991 13.7749 20.8999C13.8451 20.8998 13.9146 20.914 13.9791 20.9417C14.0436 20.9695 14.1017 21.0101 14.1499 21.0612C14.1999 21.1099 14.2397 21.1683 14.2667 21.2327C14.2938 21.2971 14.3076 21.3663 14.3074 21.4362C14.308 21.5061 14.2944 21.5755 14.2673 21.6399C14.2402 21.7044 14.2003 21.7627 14.1499 21.8112C14.1013 21.8614 14.043 21.9013 13.9785 21.9283C13.9141 21.9554 13.8448 21.9691 13.7749 21.9687Z" fill="white"/>
<path d="M21.2267 21.8749H20.2442L16.7304 16.4224C16.6429 16.2881 16.57 16.1448 16.5129 15.9949H16.4829C16.5163 16.3063 16.5289 16.6195 16.5204 16.9324V21.8749H15.7217V15.0387H16.7604L20.1804 20.3937C20.3229 20.6162 20.4154 20.7687 20.4579 20.8512H20.4767C20.4371 20.5177 20.4208 20.1819 20.4279 19.8462V15.0387H21.2267V21.8749Z" fill="white"/>
<path d="M26.6337 21.8749H23V15.0387H26.465V15.7624H23.8175V18.0349H26.285V18.7549H23.8175V21.1249H26.6375L26.6337 21.8749Z" fill="white"/>
<path d="M32.0003 15.7624H30.0128V21.8749H29.214V15.7624H27.249V15.0387H32.0003V15.7624Z" fill="white"/>
<path d="M20.7953 26.5249C20.5246 26.6561 20.226 26.7191 19.9253 26.7087C19.7256 26.7177 19.5262 26.6839 19.3406 26.6095C19.1549 26.5351 18.9874 26.4219 18.8491 26.2774C18.5735 25.969 18.4284 25.5657 18.4441 25.1524C18.434 24.9287 18.469 24.7052 18.5469 24.4952C18.6248 24.2852 18.7442 24.0929 18.8978 23.9299C19.0476 23.7766 19.2276 23.656 19.4264 23.5759C19.6253 23.4959 19.8386 23.4581 20.0528 23.4649C20.3092 23.4562 20.5646 23.5009 20.8028 23.5962V23.9712C20.5735 23.8442 20.3149 23.7796 20.0528 23.7837C19.8876 23.779 19.7233 23.8101 19.5712 23.8749C19.4191 23.9396 19.2828 24.0364 19.1716 24.1587C18.9377 24.4251 18.8167 24.7721 18.8341 25.1262C18.8166 25.4616 18.9294 25.7908 19.1491 26.0449C19.2544 26.1582 19.383 26.2474 19.5261 26.3063C19.6692 26.3652 19.8233 26.3925 19.9778 26.3862C20.2658 26.3937 20.5501 26.321 20.7991 26.1762L20.7953 26.5249Z" fill="#F2F2F2"/>
<path d="M22.3285 26.7088C22.1792 26.7136 22.0307 26.6863 21.8928 26.6287C21.755 26.5712 21.6312 26.4846 21.5298 26.375C21.3247 26.1462 21.2182 25.8457 21.2335 25.5388C21.2241 25.378 21.2468 25.217 21.3003 25.065C21.3537 24.9131 21.4368 24.7733 21.5448 24.6538C21.6549 24.5463 21.786 24.4625 21.9298 24.4077C22.0737 24.3529 22.2272 24.3281 22.381 24.335C22.5264 24.3273 22.6717 24.3511 22.807 24.4048C22.9422 24.4586 23.0643 24.5409 23.1648 24.6463C23.3641 24.8865 23.4646 25.1935 23.446 25.505C23.4617 25.8212 23.3527 26.131 23.1423 26.3675C23.0389 26.4793 22.9128 26.5675 22.7724 26.6264C22.632 26.6853 22.4806 26.7134 22.3285 26.7088ZM22.3548 24.6575C22.2516 24.6532 22.1488 24.6722 22.054 24.7131C21.9592 24.754 21.8749 24.8158 21.8073 24.8938C21.663 25.0796 21.591 25.3114 21.6048 25.5463C21.5917 25.7742 21.6638 25.9987 21.8073 26.1763C21.8756 26.2532 21.9601 26.314 22.0548 26.3542C22.1495 26.3944 22.252 26.4131 22.3548 26.4088C22.4554 26.4147 22.556 26.3975 22.649 26.3585C22.7419 26.3195 22.8247 26.2598 22.891 26.1838C23.0273 25.9975 23.0937 25.7691 23.0785 25.5388C23.0933 25.3073 23.027 25.0779 22.891 24.89C22.8257 24.8125 22.7432 24.7511 22.6502 24.7108C22.5571 24.6705 22.456 24.6522 22.3548 24.6575Z" fill="#F2F2F2"/>
<path d="M25.197 24.77C25.116 24.7169 25.0199 24.6919 24.9233 24.6988C24.8477 24.7015 24.774 24.7228 24.7086 24.7607C24.6432 24.7986 24.5882 24.8521 24.5483 24.9163C24.4367 25.093 24.3829 25.3001 24.3945 25.5088V26.6563H24.0195V24.4063H24.3945V24.875C24.4358 24.73 24.5178 24.5998 24.6308 24.5C24.7286 24.4151 24.8538 24.3685 24.9833 24.3688C25.0558 24.3655 25.1282 24.3757 25.197 24.3988V24.77Z" fill="#F2F2F2"/>
<path d="M27.3948 25.625H25.8085C25.7979 25.8346 25.8661 26.0406 25.9998 26.2025C26.0693 26.2718 26.1526 26.3257 26.2444 26.3606C26.3362 26.3955 26.4343 26.4106 26.5323 26.405C26.7865 26.4024 27.0323 26.3139 27.2298 26.1537V26.4912C26.9979 26.644 26.7234 26.7189 26.446 26.705C26.3061 26.712 26.1663 26.6881 26.0367 26.635C25.907 26.5818 25.7907 26.5007 25.696 26.3975C25.5008 26.1539 25.4032 25.8465 25.4223 25.535C25.4088 25.2227 25.5147 24.917 25.7185 24.68C25.8113 24.5728 25.9267 24.4876 26.0564 24.4306C26.1861 24.3735 26.3269 24.346 26.4685 24.35C26.5964 24.3428 26.7243 24.3647 26.8425 24.4141C26.9607 24.4634 27.0662 24.539 27.151 24.635C27.3237 24.8626 27.4089 25.1448 27.391 25.43L27.3948 25.625ZM27.0198 25.3212C27.0274 25.1474 26.9743 24.9764 26.8698 24.8375C26.8185 24.7795 26.7547 24.7339 26.6833 24.704C26.6118 24.6741 26.5346 24.6608 26.4573 24.665C26.3766 24.664 26.2965 24.6798 26.2223 24.7114C26.1481 24.7431 26.0812 24.7898 26.026 24.8487C25.9026 24.9793 25.8249 25.1464 25.8048 25.325L27.0198 25.3212Z" fill="#F2F2F2"/>
</g>
</g>
<defs>
<filter id="filter0_d_7571_17908" x="0.5" y="0" width="42.5" height="42.5" filterUnits="userSpaceOnUse" color-interpolation-filters="sRGB">
<feFlood flood-opacity="0" result="BackgroundImageFix"/>
<feColorMatrix in="SourceAlpha" type="matrix" values="0 0 0 0 0 0 0 0 0 0 0 0 0 0 0 0 0 0 127 0" result="hardAlpha"/>
<feOffset dx="-2" dy="2"/>
<feGaussianBlur stdDeviation="0.25"/>
<feComposite in2="hardAlpha" operator="out"/>
<feColorMatrix type="matrix" values="0 0 0 0 0.227451 0 0 0 0 0.482353 0 0 0 0 0.835294 0 0 0 0.4 0"/>
<feBlend mode="normal" in2="BackgroundImageFix" result="effect1_dropShadow_7571_17908"/>
<feBlend mode="normal" in="SourceGraphic" in2="effect1_dropShadow_7571_17908" result="shape"/>
</filter>
<linearGradient id="paint0_linear_7571_17908" x1="11.2273" y1="7.31037" x2="32.4674" y2="43.9871" gradientUnits="userSpaceOnUse">
<stop offset="0.331091" stop-color="white" stop-opacity="0.26"/>
<stop offset="1" stop-color="#3A7BD5" stop-opacity="0.16"/>
</linearGradient>
<clipPath id="clip0_7571_17908">
<rect width="24" height="24" fill="white" transform="translate(11 8)"/>
</clipPath>
</defs>
</svg>
