<svg width="43" height="43" viewBox="0 0 43 43" fill="none" xmlns="http://www.w3.org/2000/svg">
<g filter="url(#filter0_d_7571_17929)">
<rect x="3.5" y="0.5" width="39" height="39" rx="7.5" stroke="url(#paint0_linear_7571_17929)" shape-rendering="crispEdges"/>
<path d="M26.1749 13.5851H25.1999V12.6686H26.1749V13.5851ZM21.2999 13.5851H20.325V12.6686H21.2999V13.5851ZM26.6916 10.9821L27.9688 9.78138C28.1541 9.60723 28.1541 9.31393 27.9688 9.13061C27.7738 8.95646 27.4618 8.95646 27.2766 9.13061L25.8337 10.4871C25.0537 10.1296 24.1761 9.91882 23.2499 9.91882C22.3139 9.91882 21.4365 10.1296 20.6565 10.4963L19.2038 9.13061C19.0186 8.95646 18.7066 8.95646 18.5213 9.13061C18.3263 9.31393 18.3263 9.60723 18.5213 9.78138L19.7986 10.9821C18.3459 11.9904 17.4001 13.5852 17.4001 15.4183H29.1001C29.1001 13.5852 28.1251 11.9812 26.6919 10.9821H26.6916ZM31.5376 16.3349C30.7299 16.3349 30.0751 16.9505 30.0751 17.7098V24.1258C30.0751 24.8851 30.7299 25.5006 31.5376 25.5006C32.3452 25.5006 33 24.8851 33 24.1258V17.7098C33 16.9505 32.3452 16.3349 31.5376 16.3349ZM14.9624 16.3349C14.1548 16.3349 13.5 16.9505 13.5 17.7098V24.1258C13.5 24.8851 14.1548 25.5006 14.9624 25.5006C15.7701 25.5006 16.4249 24.8851 16.4249 24.1258V17.7098C16.4249 16.9505 15.7701 16.3349 14.9624 16.3349ZM17.3999 25.5006C17.3999 26.0068 17.8364 26.4172 18.3749 26.4172H19.3499V29.6252C19.3499 29.9898 19.504 30.3395 19.7782 30.5973C20.0525 30.8552 20.4245 31 20.8123 31C21.62 31 22.2748 30.3845 22.2748 29.6252V26.4172H24.2247V29.6252C24.2247 30.3845 24.8795 31 25.6872 31C26.4949 31 27.1496 30.3845 27.1496 29.6252V26.4172H28.1246C28.6631 26.4172 29.0996 26.0068 29.0996 25.5006V16.3349H17.3996L17.3999 25.5006Z" fill="#8BC34A"/>
</g>
<defs>
<filter id="filter0_d_7571_17929" x="0.5" y="0" width="42.5" height="42.5" filterUnits="userSpaceOnUse" color-interpolation-filters="sRGB">
<feFlood flood-opacity="0" result="BackgroundImageFix"/>
<feColorMatrix in="SourceAlpha" type="matrix" values="0 0 0 0 0 0 0 0 0 0 0 0 0 0 0 0 0 0 127 0" result="hardAlpha"/>
<feOffset dx="-2" dy="2"/>
<feGaussianBlur stdDeviation="0.25"/>
<feComposite in2="hardAlpha" operator="out"/>
<feColorMatrix type="matrix" values="0 0 0 0 0.227451 0 0 0 0 0.482353 0 0 0 0 0.835294 0 0 0 0.4 0"/>
<feBlend mode="normal" in2="BackgroundImageFix" result="effect1_dropShadow_7571_17929"/>
<feBlend mode="normal" in="SourceGraphic" in2="effect1_dropShadow_7571_17929" result="shape"/>
</filter>
<linearGradient id="paint0_linear_7571_17929" x1="11.2273" y1="7.31037" x2="32.4674" y2="43.9871" gradientUnits="userSpaceOnUse">
<stop offset="0.331091" stop-color="white" stop-opacity="0.26"/>
<stop offset="1" stop-color="#3A7BD5" stop-opacity="0.16"/>
</linearGradient>
</defs>
</svg>
