<svg width="43" height="43" viewBox="0 0 43 43" fill="none" xmlns="http://www.w3.org/2000/svg">
<g filter="url(#filter0_d_7571_17932)">
<rect x="3.5" y="0.5" width="39" height="39" rx="7.5" stroke="url(#paint0_linear_7571_17932)" shape-rendering="crispEdges"/>
<g clip-path="url(#clip0_7571_17932)">
<path d="M27.9682 16.4952C28.2298 17.0648 28.5217 17.6201 28.7812 18.1908C29.2806 19.2889 29.6598 20.4484 29.8174 21.6444C29.9749 22.8403 29.9064 24.0753 29.5328 25.222C29.1104 26.5165 28.3085 27.6681 27.326 28.6106C26.1637 29.7257 24.6717 30.5852 23.0623 30.6487C22.0136 30.69 20.9695 30.3902 20.0409 29.9014C19.2604 29.4906 18.5479 28.9432 17.9794 28.2689C17.411 27.5947 16.9889 26.7918 16.7935 25.9317C16.5528 24.8727 16.6617 23.7484 17.0259 22.7252C17.2865 21.9935 17.6726 21.3123 17.9476 20.5859C18.248 19.7922 18.4157 18.9446 18.8138 18.1951C19.1745 17.5155 19.7157 16.935 20.0031 16.2213C20.1748 15.795 20.2492 15.3372 20.3601 14.8911C20.471 14.4451 20.6262 13.9959 20.9281 13.6494C21.292 13.2319 21.8393 13.0056 22.3894 12.942C22.9394 12.8785 23.4962 12.9643 24.0361 13.0875C24.4659 13.1855 24.8905 13.3072 25.3058 13.4549C25.6603 13.581 26.0116 13.7279 26.3182 13.9461C26.7359 14.2433 27.0541 14.6619 27.3075 15.1076C27.561 15.5533 27.755 16.0294 27.969 16.4953L27.9682 16.4952Z" fill="#020204"/>
<path d="M23.3498 30.6588C23.7917 30.6845 24.2327 30.7274 24.6706 30.7935C25.0555 30.852 25.4378 30.9274 25.8161 31.0194C26.4088 31.1631 26.9993 31.3462 27.6089 31.3636C27.7693 31.3682 27.9303 31.361 28.0877 31.3261C28.2452 31.2913 28.3964 31.2277 28.5219 31.1277C28.7091 30.9785 28.8272 30.7535 28.8719 30.5182C28.9167 30.2829 28.8887 30.0381 28.8197 29.8088C28.682 29.3505 28.3859 28.9593 28.1419 28.5479C28.0018 28.3124 27.8768 28.0675 27.725 27.8393C27.5732 27.6112 27.3916 27.3975 27.161 27.2489C26.8423 27.0434 26.447 26.9764 26.0697 27.014C25.6923 27.0516 25.3306 27.1879 24.9938 27.3623C24.5218 27.6067 24.0774 27.9423 23.8201 28.4075C23.7306 28.5693 23.6655 28.7433 23.5894 28.912C23.5133 29.0807 23.4242 29.2467 23.2954 29.3794C23.1516 29.5274 22.965 29.6271 22.8163 29.77C22.742 29.8423 22.677 29.9247 22.6396 30.0205C22.6022 30.1164 22.592 30.2259 22.6267 30.323C22.6506 30.3897 22.6942 30.4482 22.7481 30.4941C22.8019 30.5401 22.8655 30.5736 22.9323 30.5969C23.0656 30.6439 23.2094 30.6508 23.3506 30.659L23.3498 30.6588Z" fill="#020204"/>
<path d="M22.0368 30.6303C21.6685 30.6388 21.3041 30.7047 20.9442 30.7792C20.5994 30.8505 20.2562 30.9298 19.9156 31.0193C19.3409 31.1701 18.7654 31.3508 18.1714 31.3634C18.015 31.3666 17.8576 31.3582 17.7052 31.3229C17.5528 31.2877 17.4053 31.2249 17.283 31.1274C17.0962 30.9784 16.9775 30.7538 16.9336 30.5191C16.8896 30.2843 16.9164 30.04 16.9846 29.811C17.1209 29.3531 17.4132 28.9611 17.6526 28.5477C17.7886 28.3127 17.9087 28.0684 18.0558 27.8401C18.2029 27.6119 18.38 27.3977 18.6069 27.2485C18.916 27.0453 19.3015 26.9765 19.6697 27.0127C20.0379 27.0489 20.3907 27.1846 20.7154 27.362C21.1738 27.6124 21.5925 27.9569 21.8575 28.4063C22.0435 28.7221 22.1507 29.0832 22.3681 29.3782C22.4851 29.5371 22.6332 29.6744 22.7296 29.846C22.7783 29.9318 22.814 30.0264 22.8222 30.1248C22.8305 30.2232 22.8102 30.3255 22.7547 30.4072C22.7182 30.4612 22.6674 30.5049 22.6107 30.5372C22.554 30.5694 22.4914 30.5906 22.4275 30.6038C22.299 30.6305 22.1681 30.6263 22.0375 30.6295L22.0368 30.6303ZM19.9791 15.2954C19.9273 14.6728 19.9389 14.0468 19.9164 13.4224C19.8941 12.8221 19.8388 12.222 19.859 11.6216C19.8795 11.0111 19.9819 10.3925 20.2537 9.84378C20.5256 9.29509 20.9671 8.83091 21.5058 8.54058C22.0119 8.26744 22.5956 8.15071 23.1714 8.15698C23.9523 8.16549 24.7351 8.40136 25.3673 8.85943C25.7638 9.14639 26.0972 9.51633 26.3602 9.92902C26.5846 10.2813 26.7589 10.666 26.8683 11.0698C27.0927 11.8972 27.0394 12.7687 27.0831 13.6241C27.1245 14.4349 27.2543 15.2437 27.2101 16.0543C27.2004 16.231 27.1815 16.4105 27.103 16.5684C27.0265 16.7223 26.8967 16.846 26.7475 16.9313C26.5983 17.0166 26.4304 17.0651 26.2607 17.0913C25.9211 17.1437 25.5738 17.1092 25.2317 17.1409C24.7353 17.1869 24.2617 17.3711 23.769 17.4473C23.1825 17.5381 22.5835 17.4738 21.9897 17.45C21.7519 17.4405 21.5133 17.4376 21.2773 17.4079C21.0413 17.3783 20.8057 17.3212 20.5957 17.2092C20.4672 17.1403 20.3472 17.0505 20.2507 16.9401C20.1541 16.8296 20.0804 16.6991 20.0437 16.5563C19.9885 16.3432 20.0176 16.1188 20.0184 15.8986C20.0192 15.6973 19.9957 15.4967 19.9782 15.2961L19.9791 15.2954Z" fill="#020204"/>
<path d="M20.9136 15.0556C20.8296 15.1608 20.7748 15.2875 20.7417 15.4182C20.7086 15.5489 20.6966 15.6839 20.6913 15.8186C20.6811 16.0879 20.6975 16.3625 20.6263 16.6224C20.55 16.9004 20.3792 17.1411 20.2119 17.3758C19.9223 17.7823 19.6295 18.1992 19.4867 18.6774C19.4002 18.967 19.3714 19.2737 19.4025 19.5743C19.0784 20.0504 18.7976 20.556 18.5652 21.083C18.2128 21.8817 17.971 22.7321 17.886 23.6008C17.7818 24.6646 17.9179 25.7587 18.338 26.7416C18.6417 27.4523 19.0946 28.1028 19.6785 28.6092C19.9753 28.8667 20.3051 29.0864 20.6586 29.2597C21.8807 29.8603 23.391 29.8614 24.5928 29.2211C25.2209 28.8864 25.7511 28.397 26.2622 27.9018C26.5701 27.6036 26.8763 27.2984 27.1111 26.9397C27.5632 26.2495 27.7206 25.4105 27.8185 24.5912C27.9896 23.1586 27.9951 21.6453 27.367 20.3465C27.1501 19.8984 26.8632 19.4878 26.517 19.1301C26.425 18.5051 26.2433 17.8932 25.9794 17.3192C25.789 16.905 25.5561 16.5108 25.3792 16.0908C25.3066 15.9184 25.2427 15.7418 25.1629 15.5729C25.0831 15.4041 24.983 15.2415 24.8477 15.1122C24.7092 14.9796 24.5368 14.8858 24.3547 14.8257C24.1727 14.7656 23.9812 14.7384 23.79 14.7288C23.4072 14.7095 23.0236 14.7595 22.6407 14.7443C22.3358 14.7323 22.0319 14.6788 21.7273 14.6968C21.575 14.7058 21.4228 14.7329 21.2814 14.7904C21.14 14.8478 21.0097 14.9363 20.9146 15.0555L20.9136 15.0556Z" fill="#FDFDFB"/>
<g filter="url(#filter1_f_7571_17932)">
<path d="M20.7254 16.4843C20.8622 16.881 21.1375 17.2196 21.4634 17.484C21.5718 17.572 21.6869 17.6531 21.8141 17.7103C21.9414 17.7676 22.0818 17.8003 22.2208 17.7884C22.3569 17.7769 22.4864 17.7234 22.6056 17.6562C22.7247 17.589 22.835 17.5078 22.9505 17.4347C23.1483 17.3094 23.3602 17.2082 23.5656 17.0957C23.8132 16.9602 24.0532 16.8065 24.2617 16.6169C24.3571 16.5297 24.4461 16.4347 24.5515 16.3598C24.6569 16.2849 24.7832 16.2308 24.9121 16.2396C25.0088 16.2461 25.0995 16.2873 25.1942 16.3077C25.2424 16.3179 25.2906 16.3229 25.3386 16.3156C25.3866 16.3082 25.4334 16.2879 25.467 16.2529C25.5081 16.2101 25.5261 16.1485 25.5232 16.089C25.5203 16.0296 25.5004 15.9723 25.4726 15.9197C25.4172 15.8147 25.3332 15.7241 25.2959 15.6114C25.2626 15.511 25.2693 15.4025 25.2722 15.297C25.2751 15.1914 25.2729 15.0809 25.224 14.9871C25.1869 14.9156 25.1247 14.859 25.0536 14.8213C24.9824 14.7836 24.9025 14.7651 24.8225 14.7567C24.6622 14.7417 24.5017 14.7728 24.341 14.7819C24.1276 14.7939 23.9134 14.7672 23.7001 14.7801C23.4342 14.7962 23.1734 14.8733 22.9069 14.8738C22.6028 14.8743 22.2989 14.7748 21.9985 14.8224C21.8695 14.8428 21.7466 14.8897 21.6228 14.931C21.499 14.9723 21.3711 15.0087 21.2407 15.0068C21.0925 15.0046 20.9491 14.9534 20.8012 14.9428C20.7273 14.9375 20.6517 14.9428 20.5822 14.9687C20.5128 14.9947 20.4501 15.043 20.4161 15.1088C20.3966 15.1465 20.387 15.1888 20.3851 15.2313C20.3833 15.2737 20.3891 15.3162 20.3994 15.3574C20.4199 15.4398 20.4576 15.5167 20.4878 15.5957C20.5997 15.8813 20.6237 16.1941 20.7237 16.4839L20.7254 16.4843Z" fill="black" fill-opacity="0.26"/>
</g>
<g opacity="0.3" filter="url(#filter2_f_7571_17932)">
<path d="M20.3437 15.3538C20.6094 15.518 20.8479 15.7196 21.0482 15.9496C21.234 16.163 21.392 16.405 21.6347 16.563C21.806 16.6746 22.0118 16.7375 22.2206 16.7566C22.4658 16.779 22.7139 16.7428 22.9502 16.6788C23.1693 16.6194 23.3811 16.536 23.5754 16.4257C23.9448 16.2158 24.2534 15.9082 24.6599 15.7703C24.7489 15.7402 24.8415 15.7186 24.9272 15.6815C25.0129 15.6444 25.0935 15.5887 25.1345 15.51C25.1746 15.4344 25.1722 15.347 25.1851 15.2639C25.1987 15.1751 25.2296 15.0892 25.2465 15.0008C25.2633 14.9124 25.2653 14.8179 25.224 14.7366C25.1896 14.6693 25.1272 14.6162 25.0553 14.5823C24.9834 14.5485 24.9026 14.5332 24.822 14.5295C24.6608 14.5221 24.5016 14.5602 24.3409 14.5738C24.128 14.5917 23.9137 14.5664 23.7001 14.5723C23.4343 14.5797 23.1724 14.6352 22.9068 14.6466C22.6038 14.6598 22.3016 14.6157 21.9984 14.6059C21.8673 14.6017 21.7353 14.6037 21.6061 14.6247C21.4768 14.6456 21.3499 14.6855 21.2405 14.7524C21.1345 14.8173 21.048 14.9053 20.9508 14.981C20.9022 15.0189 20.8505 15.0539 20.7938 15.0806C20.7371 15.1072 20.6749 15.1253 20.6114 15.1281C20.5787 15.1296 20.5457 15.127 20.5134 15.1316C20.4863 15.1358 20.4604 15.1449 20.4371 15.1584C20.4139 15.1719 20.3938 15.1894 20.3779 15.2101C20.3621 15.2308 20.3508 15.2541 20.3449 15.2788C20.3389 15.3035 20.3382 15.3291 20.343 15.354L20.3437 15.3538Z" fill="black"/>
</g>
<path d="M21.0362 11.7255C20.8932 11.7333 20.7562 11.7994 20.6516 11.8972C20.5469 11.9949 20.4732 12.1231 20.4277 12.259C20.337 12.5309 20.3574 12.8255 20.3779 13.1106C20.3966 13.3694 20.4157 13.6331 20.5127 13.8739C20.5611 13.9943 20.6291 14.1069 20.7199 14.2004C20.8107 14.2939 20.9249 14.3644 21.0507 14.3959C21.1688 14.4255 21.2948 14.4194 21.4109 14.3829C21.527 14.3464 21.6329 14.2801 21.7199 14.1951C21.8468 14.071 21.9322 13.9086 21.9812 13.738C22.0302 13.5674 22.0442 13.3884 22.0416 13.211C22.0384 12.9889 22.0095 12.7659 21.9399 12.5551C21.8703 12.3443 21.7595 12.1452 21.6047 11.9859C21.5297 11.9087 21.4441 11.8409 21.3476 11.7933C21.251 11.7457 21.1433 11.719 21.0359 11.7248L21.0362 11.7255Z" fill="url(#paint1_radial_7571_17932)"/>
<mask id="mask0_7571_17932" style="mask-type:alpha" maskUnits="userSpaceOnUse" x="20" y="11" width="3" height="4">
<path d="M21.0362 11.7255C20.8932 11.7333 20.7562 11.7994 20.6516 11.8972C20.5469 11.9949 20.4732 12.1231 20.4277 12.259C20.337 12.5309 20.3574 12.8255 20.3779 13.1106C20.3966 13.3694 20.4157 13.6331 20.5127 13.8739C20.5611 13.9943 20.6291 14.1069 20.7199 14.2004C20.8107 14.2939 20.9249 14.3644 21.0507 14.3959C21.1688 14.4255 21.2948 14.4194 21.4109 14.3829C21.527 14.3464 21.6329 14.2801 21.7199 14.1951C21.8468 14.071 21.9322 13.9086 21.9812 13.738C22.0302 13.5674 22.0442 13.3884 22.0416 13.211C22.0384 12.9889 22.0095 12.7659 21.9399 12.5551C21.8703 12.3443 21.7595 12.1452 21.6047 11.9859C21.5297 11.9087 21.4441 11.8409 21.3476 11.7933C21.251 11.7457 21.1433 11.719 21.0359 11.7248L21.0362 11.7255Z" fill="url(#paint2_radial_7571_17932)"/>
</mask>
<g mask="url(#mask0_7571_17932)">
<path opacity="0.97" d="M20.7278 12.3011C20.9435 12.1725 21.2062 12.1428 21.4562 12.1664C21.7062 12.1901 21.9482 12.2635 22.1904 12.3295C22.3681 12.3779 22.5481 12.4227 22.7146 12.5013C22.8812 12.5799 23.036 12.6954 23.1277 12.855L23.1711 12.9323C23.1867 12.9573 23.2051 12.9813 23.2286 12.999C23.2522 13.0166 23.2814 13.0282 23.3109 13.0266C23.3257 13.0258 23.3403 13.0218 23.353 13.0142C23.3657 13.0067 23.3765 12.9957 23.3833 12.9827C23.3912 12.9677 23.3936 12.9503 23.3927 12.9332C23.3914 12.9163 23.3883 12.8995 23.3833 12.8833C23.3227 12.6621 23.1797 12.4745 23.0708 12.2727L22.8862 11.9035C22.6598 11.489 22.2882 11.1631 21.866 10.9518C21.4437 10.7404 20.9721 10.6388 20.5005 10.6111C19.9542 10.5792 19.4063 10.6441 18.8673 10.7389C18.6335 10.78 18.3965 10.8285 18.1896 10.9447C18.0862 11.0028 17.9914 11.0778 17.9174 11.1704C17.8434 11.2631 17.7908 11.3741 17.7738 11.4915C17.7574 11.6048 17.7746 11.7213 17.8139 11.8286C17.8533 11.936 17.915 12.0341 17.9872 12.1228C18.1316 12.3002 18.3166 12.4389 18.4871 12.5912C18.6575 12.7435 18.8164 12.9119 19.0063 13.0381C19.1015 13.1011 19.2049 13.1534 19.315 13.1841C19.425 13.2147 19.5423 13.2234 19.6543 13.2004C19.7704 13.1767 19.8779 13.1197 19.972 13.0476C20.066 12.9756 20.1476 12.8886 20.2249 12.7988C20.3795 12.6191 20.524 12.4223 20.7275 12.301L20.7278 12.3011Z" fill="url(#paint3_radial_7571_17932)"/>
</g>
<path d="M23.5679 11.7255C23.3446 11.8781 23.1574 12.093 23.0659 12.3481C22.9505 12.6696 22.9947 13.0293 23.106 13.3523C23.2201 13.683 23.4108 13.9982 23.6989 14.1968C23.8429 14.2961 24.0096 14.3641 24.1833 14.3848C24.357 14.4054 24.5376 14.3771 24.6926 14.2964C24.8817 14.1979 25.0259 14.0254 25.1154 13.8321C25.2049 13.6387 25.2431 13.4248 25.255 13.2119C25.2711 12.9407 25.2437 12.6651 25.1546 12.4085C25.0578 12.1297 24.8814 11.8727 24.6346 11.7122C24.5108 11.6321 24.3701 11.577 24.224 11.5568C24.078 11.5366 23.9264 11.5517 23.7889 11.6052C23.7106 11.6357 23.6374 11.678 23.568 11.7257L23.5679 11.7255Z" fill="url(#paint4_radial_7571_17932)"/>
<mask id="mask1_7571_17932" style="mask-type:alpha" maskUnits="userSpaceOnUse" x="22" y="11" width="4" height="4">
<path d="M23.5679 11.7255C23.3446 11.8781 23.1574 12.093 23.0659 12.3481C22.9505 12.6696 22.9947 13.0293 23.106 13.3523C23.2201 13.683 23.4108 13.9982 23.6989 14.1968C23.8429 14.2961 24.0096 14.3641 24.1833 14.3848C24.357 14.4054 24.5376 14.3771 24.6926 14.2964C24.8817 14.1979 25.0259 14.0254 25.1154 13.8321C25.2049 13.6387 25.2431 13.4248 25.255 13.2119C25.2711 12.9407 25.2437 12.6651 25.1546 12.4085C25.0578 12.1297 24.8814 11.8727 24.6346 11.7122C24.5108 11.6321 24.3701 11.577 24.224 11.5568C24.078 11.5366 23.9264 11.5517 23.7889 11.6052C23.7106 11.6357 23.6374 11.678 23.568 11.7257L23.5679 11.7255Z" fill="url(#paint5_radial_7571_17932)"/>
</mask>
<g mask="url(#mask1_7571_17932)">
<path d="M22.7244 12.5389C22.9166 12.3794 23.1383 12.2593 23.3768 12.1854C23.8658 12.0344 24.4212 12.0941 24.8533 12.3682C25.0024 12.4628 25.1354 12.5804 25.2742 12.6898C25.413 12.7992 25.5602 12.9019 25.727 12.9606C25.817 12.9922 25.9132 13.0106 26.0082 13.0007C26.094 12.9917 26.1769 12.9596 26.2479 12.9107C26.3189 12.8619 26.3784 12.7968 26.423 12.723C26.5123 12.5754 26.5411 12.3964 26.5257 12.2247C26.4949 11.8811 26.3011 11.5777 26.1386 11.2735C26.0878 11.1782 26.0393 11.0813 25.9779 10.9923C25.7897 10.7195 25.4901 10.5396 25.1758 10.4342C24.8615 10.3288 24.5294 10.2907 24.2005 10.2492C24.0538 10.2308 23.9055 10.2115 23.7587 10.2292C23.59 10.2495 23.4312 10.3175 23.2666 10.3597C23.1885 10.3798 23.1088 10.3938 23.0314 10.4163C22.954 10.4387 22.8777 10.4701 22.8147 10.5204C22.7228 10.594 22.6649 10.7043 22.6398 10.8195C22.6148 10.9346 22.6206 11.0544 22.6389 11.1707C22.6757 11.4033 22.7626 11.6305 22.7544 11.8659C22.7488 12.0275 22.698 12.1863 22.7042 12.3479C22.706 12.3961 22.7128 12.4425 22.7243 12.4885" fill="url(#paint6_linear_7571_17932)"/>
</g>
<g opacity="0.3" filter="url(#filter3_f_7571_17932)">
<path d="M20.9882 14.0385L20.5756 14.4149C20.503 14.488 20.4302 14.5662 20.3976 14.6639C20.3687 14.7507 20.3742 14.8449 20.3599 14.9355C20.3551 14.9665 20.3478 14.9973 20.3477 15.0286C20.3474 15.0444 20.3495 15.06 20.3539 15.0751C20.3585 15.0901 20.366 15.1042 20.3768 15.1157C20.3947 15.1348 20.4201 15.1451 20.4456 15.1503C20.4712 15.1554 20.4974 15.1561 20.5234 15.1589C20.6403 15.1715 20.7482 15.2282 20.845 15.295L21.1302 15.5027C21.3495 15.642 21.6117 15.7039 21.8714 15.7138C22.1311 15.7237 22.3902 15.6841 22.645 15.6331C22.8475 15.5926 23.0494 15.5447 23.2415 15.4689C23.5358 15.3529 23.801 15.1743 24.0544 14.9851C24.1695 14.8991 24.283 14.8105 24.3864 14.7108C24.4215 14.6769 24.4555 14.6417 24.4931 14.6107C24.5307 14.5797 24.5724 14.5527 24.6189 14.5377C24.6896 14.515 24.7664 14.5215 24.8396 14.5337C24.8948 14.5429 24.9502 14.5554 25.0061 14.553C25.034 14.5519 25.0621 14.547 25.088 14.5366C25.114 14.5261 25.138 14.5101 25.1558 14.4884C25.1789 14.4594 25.1915 14.4233 25.1913 14.3862C25.1914 14.3494 25.18 14.3131 25.1615 14.2814C25.1242 14.2179 25.0597 14.1751 24.9924 14.1452C24.9004 14.1042 24.8008 14.0841 24.7027 14.0604C24.4019 13.9877 24.1095 13.8804 23.8322 13.7427C23.6944 13.6743 23.5604 13.5984 23.4248 13.5258C23.2853 13.4511 23.1432 13.3793 22.9918 13.3334C22.6533 13.2308 22.2832 13.2645 21.9492 13.3805C21.5781 13.5093 21.2425 13.739 20.988 14.0383L20.9882 14.0385Z" fill="black"/>
</g>
<path d="M21.7078 13.6133C21.8497 13.4537 21.9468 13.259 22.0833 13.0946C22.1515 13.0124 22.2301 12.9375 22.3228 12.8844C22.4155 12.8312 22.523 12.8008 22.6295 12.81C22.7479 12.8203 22.8588 12.8792 22.9455 12.9606C23.0322 13.042 23.0965 13.1454 23.1479 13.2518C23.1971 13.3545 23.2361 13.4639 23.307 13.5531C23.3825 13.6482 23.4886 13.7131 23.5842 13.7879C23.632 13.8252 23.6779 13.8658 23.7158 13.9132C23.7536 13.9606 23.7832 14.0157 23.7953 14.0753C23.8071 14.1362 23.802 14.1992 23.7804 14.2574C23.7594 14.3152 23.7236 14.3676 23.6792 14.4103C23.5903 14.4959 23.4692 14.5421 23.3471 14.5594C23.1029 14.5939 22.8558 14.5211 22.6093 14.528C22.3597 14.5349 22.1159 14.6231 21.8663 14.614C21.7416 14.6094 21.6151 14.579 21.5126 14.5077C21.4609 14.4723 21.4172 14.4264 21.3843 14.3731C21.352 14.3196 21.3324 14.2582 21.3303 14.1958C21.3283 14.1364 21.3422 14.0769 21.3659 14.0223C21.3897 13.9677 21.4232 13.9177 21.4609 13.8716C21.5364 13.7794 21.6286 13.7024 21.7077 13.6134L21.7078 13.6133Z" fill="url(#paint7_radial_7571_17932)"/>
<g filter="url(#filter4_f_7571_17932)">
<path d="M24.4908 9.19384C24.2849 9.33917 24.3749 9.52059 24.4634 9.70276C24.552 9.88492 24.2687 10.4099 24.2656 10.4325C24.2626 10.4551 24.8233 10.1664 24.9762 9.97878C25.1567 9.75728 25.6127 10.2785 25.588 10.1991C25.5882 10.0572 24.6969 9.04852 24.4909 9.19384H24.4908Z" fill="#7C7C7C"/>
</g>
<path d="M24.0832 12.3999C23.9993 12.4059 23.9174 12.4346 23.8462 12.4802C23.7751 12.5259 23.7142 12.5859 23.6665 12.6554C23.5712 12.7942 23.5291 12.9644 23.5225 13.1326C23.5174 13.2589 23.5313 13.3868 23.5732 13.5061C23.6152 13.6254 23.6857 13.7359 23.7832 13.8165C23.8828 13.899 24.0094 13.9485 24.1386 13.9546C24.2679 13.9607 24.3989 13.9236 24.505 13.8496C24.5896 13.7908 24.6578 13.7097 24.7064 13.6188C24.755 13.528 24.7843 13.4274 24.7976 13.3252C24.8212 13.1447 24.7945 12.9562 24.711 12.7944C24.6276 12.6326 24.4861 12.4994 24.3152 12.4365C24.2413 12.4091 24.1618 12.395 24.0832 12.4006V12.3999Z" fill="#020204"/>
<g filter="url(#filter5_f_7571_17932)">
<path d="M24.2834 12.9506C24.2139 12.9781 24.1037 12.9608 24.0733 13.0291C24.0552 13.0696 24.0808 13.1362 24.1217 13.1528C24.2046 13.1865 24.3332 13.1255 24.3667 13.0423C24.3812 13.0062 24.3593 12.9491 24.3234 12.9339C24.3101 12.9282 24.2969 12.9451 24.2835 12.9504L24.2834 12.9506Z" fill="#141413"/>
</g>
<g filter="url(#filter6_f_7571_17932)">
<path d="M24.6029 13.1314C24.6961 13.0382 24.5365 12.7908 24.4121 12.6896C24.322 12.6162 24.0594 12.5393 24.0707 12.6193C24.0819 12.6992 24.1992 12.8013 24.2791 12.8793C24.3765 12.9753 24.5587 13.1757 24.6029 13.1314Z" fill="url(#paint8_linear_7571_17932)"/>
</g>
<g filter="url(#filter7_f_7571_17932)">
<path d="M24.3436 11.0637C24.3053 11.1119 24.2706 11.1643 24.2432 11.222C24.4156 11.2591 24.5806 11.3301 24.7276 11.4279C25.0124 11.617 25.2286 11.8935 25.3803 12.2011C25.4157 12.1619 25.448 12.1198 25.4758 12.0731C25.3233 11.7527 25.1027 11.4629 24.808 11.2673C24.6665 11.1733 24.5088 11.1023 24.3437 11.064L24.3436 11.0637Z" fill="url(#paint9_linear_7571_17932)"/>
</g>
<g filter="url(#filter8_f_7571_17932)">
<path d="M21.0194 11.2208C21 11.2204 20.9811 11.2221 20.9616 11.223L20.9238 11.2253C21.0373 11.2356 21.1502 11.2661 21.2527 11.312C21.3925 11.3747 21.5157 11.4641 21.6243 11.5659C21.8254 11.7543 21.9749 11.9869 22.0762 12.2335C22.0514 12.0471 21.9954 11.8663 21.9105 11.6985C21.8708 11.6527 21.8297 11.6078 21.785 11.566C21.6766 11.4643 21.5532 11.3749 21.4135 11.3121C21.2914 11.2573 21.1553 11.2231 21.0193 11.2207L21.0194 11.2208Z" fill="url(#paint10_linear_7571_17932)"/>
</g>
<path d="M20.6908 12.9105C20.6609 13.0909 20.6598 13.2802 20.7218 13.4522C20.762 13.5658 20.8303 13.6688 20.9124 13.7574C20.9662 13.8154 21.0271 13.8681 21.0984 13.9023C21.1697 13.9364 21.2523 13.951 21.329 13.9318C21.3997 13.9141 21.4617 13.8683 21.5073 13.8115C21.5529 13.7547 21.5835 13.6867 21.6052 13.6171C21.6692 13.4114 21.659 13.1863 21.5954 12.9805C21.549 12.8305 21.4723 12.6858 21.3522 12.5847C21.2949 12.5365 21.2278 12.4987 21.155 12.4813C21.0821 12.4639 21.0031 12.468 20.935 12.499C20.8593 12.5334 20.8007 12.5988 20.7623 12.6725C20.7239 12.7462 20.7042 12.8284 20.6906 12.9103L20.6908 12.9105Z" fill="#020204"/>
<g filter="url(#filter9_f_7571_17932)">
<path d="M21.0727 12.7798C21.0921 12.8308 21.1574 12.8492 21.1932 12.8903C21.228 12.9302 21.2644 12.9714 21.2836 13.0208C21.3201 13.1153 21.2474 13.2554 21.3237 13.3221C21.3477 13.343 21.3956 13.3435 21.4192 13.3221C21.5112 13.2384 21.4907 13.0695 21.4544 12.9505C21.4214 12.8426 21.3397 12.7404 21.2391 12.6891C21.1925 12.6654 21.1226 12.6457 21.0827 12.6794C21.057 12.7011 21.0607 12.7485 21.0727 12.7798Z" fill="url(#paint11_linear_7571_17932)"/>
</g>
<path d="M20.3551 15.1534C20.3599 15.1771 20.369 15.2 20.3813 15.2209C20.4027 15.2566 20.4339 15.2856 20.4675 15.31C20.5012 15.3345 20.5377 15.355 20.5729 15.3771C20.7604 15.495 20.9131 15.6607 21.0489 15.8356C21.231 16.0703 21.3921 16.3309 21.6354 16.5016C21.8071 16.6221 22.0126 16.6908 22.2213 16.7117C22.4664 16.7364 22.7146 16.6968 22.9509 16.6272C23.1699 16.5627 23.3818 16.4722 23.5761 16.3525C23.9456 16.1246 24.2541 15.7907 24.6606 15.6409C24.7496 15.6082 24.8422 15.5849 24.9278 15.5445C25.0135 15.5042 25.0941 15.4438 25.1351 15.3583C25.1753 15.2762 25.1729 15.1814 25.1857 15.0912C25.1994 14.9948 25.2302 14.9014 25.2471 14.8055C25.264 14.7096 25.266 14.6069 25.2246 14.5187C25.1902 14.4456 25.1278 14.3879 25.0559 14.3512C24.984 14.3145 24.9032 14.2979 24.8226 14.2939C24.6614 14.2858 24.5022 14.3272 24.3415 14.3419C24.1287 14.3614 23.9143 14.334 23.7007 14.3403C23.435 14.3483 23.1731 14.4082 22.9075 14.421C22.6044 14.4357 22.3021 14.3889 21.999 14.3769C21.8678 14.3716 21.7355 14.3728 21.606 14.3949C21.4765 14.417 21.3494 14.4611 21.2413 14.5358C21.1361 14.6085 21.052 14.7077 20.9553 14.7916C20.907 14.8335 20.8549 14.8719 20.7974 14.8998C20.7399 14.9276 20.6763 14.9451 20.6123 14.9437C20.5802 14.9429 20.5456 14.9375 20.5143 14.9475C20.4947 14.9537 20.4773 14.9657 20.4625 14.9801C20.4478 14.9945 20.4356 15.0112 20.4241 15.0283C20.3974 15.068 20.3741 15.1098 20.3545 15.1535L20.3551 15.1534Z" fill="url(#paint12_radial_7571_17932)"/>
<g filter="url(#filter10_f_7571_17932)">
<path d="M21.5442 15.4799C21.5141 15.6095 21.5332 15.7457 21.5977 15.8621C21.6621 15.9785 21.7675 16.0669 21.8933 16.1103C22.0522 16.1633 22.2313 16.1373 22.3797 16.0598C22.4657 16.0148 22.5444 15.9517 22.5942 15.8683C22.6194 15.8266 22.6359 15.7803 22.6428 15.7321C22.6493 15.6838 22.6448 15.634 22.628 15.5887C22.6095 15.5388 22.5766 15.4948 22.5359 15.4604C22.4953 15.4261 22.4471 15.4011 22.3967 15.3844C22.2956 15.351 22.187 15.3504 22.0806 15.3555C21.9195 15.3633 21.7592 15.3835 21.6011 15.416" fill="#D9B30D"/>
</g>
<g filter="url(#filter11_f_7571_17932)">
<path d="M21.0232 14.4824L20.71 14.6883C20.6572 14.7257 20.6028 14.7662 20.5751 14.8245C20.5553 14.8659 20.5508 14.9129 20.551 14.9587C20.5511 15.0045 20.5534 15.0506 20.5473 15.0953C20.5432 15.1263 20.5349 15.1568 20.5334 15.188C20.5326 15.2037 20.5338 15.2194 20.5379 15.2346C20.5419 15.2499 20.5494 15.2639 20.56 15.2755C20.5739 15.2902 20.5928 15.2993 20.6122 15.3053C20.6317 15.3112 20.6516 15.3141 20.6714 15.3189C20.7658 15.3411 20.8479 15.399 20.9199 15.4638L21.132 15.6627C21.3358 15.8286 21.606 15.8973 21.8679 15.9016C22.1298 15.9058 22.3904 15.851 22.6467 15.7931L23.2432 15.6289C23.5407 15.5193 23.8168 15.3532 24.0561 15.1451C24.1645 15.0508 24.2663 14.9472 24.3881 14.8708C24.4957 14.8032 24.6165 14.7585 24.726 14.6938C24.7358 14.688 24.7455 14.6821 24.7543 14.6748C24.763 14.6675 24.7708 14.6589 24.776 14.6487C24.7848 14.631 24.7848 14.6101 24.7792 14.5912C24.7735 14.5722 24.7626 14.5555 24.7502 14.5402C24.7366 14.5233 24.7211 14.5079 24.7045 14.4938C24.5901 14.3958 24.4348 14.3603 24.2846 14.3484C24.1345 14.3365 23.9826 14.3449 23.8347 14.3201C23.695 14.296 23.5622 14.2446 23.4273 14.2014C23.2858 14.1557 23.1411 14.1205 22.9944 14.0962C22.6493 14.04 22.2941 14.0507 21.9518 14.1219C21.6258 14.1898 21.3116 14.3123 21.0248 14.4818L21.0232 14.4824Z" fill="#604405"/>
</g>
<path d="M20.9885 14.1188C20.8334 14.2232 20.694 14.3504 20.5759 14.4952C20.5084 14.5779 20.447 14.6679 20.413 14.7693C20.3863 14.849 20.3772 14.9333 20.3603 15.0157C20.3539 15.0465 20.3467 15.0775 20.3467 15.1088C20.3468 15.1246 20.3488 15.1404 20.3536 15.1554C20.3584 15.1705 20.3663 15.1845 20.3772 15.1958C20.3953 15.2146 20.4206 15.2248 20.4461 15.2301C20.4717 15.2354 20.4979 15.2361 20.5237 15.2391C20.6406 15.2523 20.7482 15.3091 20.8451 15.3758L21.1306 15.5829C21.3502 15.7219 21.6122 15.7836 21.8718 15.7936C22.1315 15.8037 22.3906 15.7642 22.6455 15.7133C22.8479 15.6729 23.0499 15.6249 23.242 15.5491C23.5362 15.4331 23.8014 15.2545 24.0548 15.0653C24.1699 14.9793 24.2834 14.8907 24.3868 14.791C24.4219 14.7571 24.4559 14.7219 24.4935 14.6909C24.5311 14.6598 24.5729 14.6329 24.6193 14.6179C24.69 14.5952 24.7668 14.6017 24.8401 14.6139C24.8953 14.6231 24.9506 14.6356 25.0065 14.6332C25.0345 14.6321 25.0625 14.6272 25.0885 14.6168C25.1144 14.6063 25.1385 14.5903 25.1562 14.5686C25.1794 14.5396 25.1919 14.5035 25.1917 14.4664C25.1919 14.4296 25.1805 14.3933 25.162 14.3616C25.1246 14.2981 25.0601 14.2553 24.9929 14.2254C24.9008 14.1844 24.8012 14.1643 24.7032 14.1406C24.4023 14.0679 24.1099 13.9606 23.8327 13.8229C23.6948 13.7545 23.5608 13.6786 23.4252 13.606C23.2858 13.5313 23.1436 13.4595 22.9922 13.4136C22.6538 13.311 22.2836 13.3447 21.9497 13.4607C21.5785 13.5895 21.243 13.8192 20.9884 14.1185L20.9885 14.1188Z" fill="url(#paint13_linear_7571_17932)"/>
<g filter="url(#filter12_f_7571_17932)">
<path d="M23.3665 14.1931C23.3483 14.1702 23.3223 14.1539 23.2942 14.1457C23.266 14.1375 23.2359 14.1377 23.2071 14.1417C23.1492 14.1516 23.0975 14.1819 23.0491 14.216C22.9118 14.3105 22.7905 14.4272 22.6847 14.5559C22.5445 14.7262 22.4288 14.9231 22.39 15.1403C22.3836 15.1768 22.3791 15.2142 22.3837 15.2512C22.3883 15.2881 22.4024 15.3247 22.4287 15.351C22.4517 15.3742 22.483 15.3883 22.5153 15.393C22.5476 15.3976 22.5809 15.3931 22.6117 15.3827C22.6736 15.3618 22.725 15.3184 22.7735 15.275C23.0415 15.0352 23.2839 14.7474 23.3808 14.401C23.3905 14.3662 23.3988 14.3306 23.3985 14.2945C23.3982 14.2585 23.3889 14.2214 23.3665 14.1931H23.3665Z" fill="#F6DA4A"/>
</g>
<g opacity="0.8" filter="url(#filter13_f_7571_17932)">
<path d="M22.7245 13.6967C22.7429 13.7564 22.8392 13.7466 22.8948 13.7751C22.9435 13.8001 22.9827 13.8552 23.0375 13.8568C23.0897 13.8584 23.1712 13.8387 23.1781 13.7869C23.1871 13.7184 23.087 13.6748 23.0227 13.6497C22.9399 13.6174 22.8336 13.601 22.7559 13.6442C22.7381 13.6541 22.7187 13.6773 22.7248 13.6968L22.7245 13.6967Z" fill="url(#paint14_radial_7571_17932)"/>
</g>
<g opacity="0.8" filter="url(#filter14_f_7571_17932)">
<path d="M21.8068 13.6621C21.7355 13.6388 21.6175 13.7647 21.656 13.8292C21.6666 13.8469 21.6989 13.8694 21.7207 13.8574C21.7537 13.8393 21.7805 13.7746 21.8161 13.7493C21.8399 13.7324 21.8346 13.6712 21.8068 13.6622L21.8068 13.6621Z" fill="url(#paint15_radial_7571_17932)"/>
</g>
<g filter="url(#filter15_f_7571_17932)">
<path d="M24.953 14.8867C25.0798 14.8867 25.1968 14.7596 25.2144 14.6028C25.232 14.446 25.1434 14.3188 25.0167 14.3188C24.8899 14.3188 24.7729 14.446 24.7553 14.6028C24.7377 14.7596 24.8262 14.8867 24.953 14.8867Z" fill="url(#paint16_linear_7571_17932)"/>
</g>
<path d="M28.3358 20.0072C28.8247 20.4004 29.1349 20.9942 29.2308 21.6141C29.3056 22.0977 29.257 22.5938 29.148 23.0707C29.0391 23.5477 28.8707 24.0087 28.7036 24.4686C28.6369 24.652 28.5701 24.8371 28.5436 25.0304C28.5171 25.2237 28.5339 25.4284 28.6271 25.5998C28.734 25.7963 28.9335 25.9316 29.1479 25.9953C29.3596 26.0582 29.5881 26.0568 29.8024 26.0035C30.0168 25.9501 30.2167 25.8458 30.3911 25.7103C30.8343 25.3662 31.1016 24.8306 31.2051 24.2793C31.3086 23.7281 31.261 23.1586 31.1649 22.6059C31.0337 21.8524 30.8129 21.1157 30.5319 20.4041C30.3252 19.8807 30.0833 19.3662 29.7454 18.9163C29.4147 18.476 28.9977 18.1055 28.6737 17.6602C28.4485 17.3509 28.2682 17.0055 27.9984 16.7343C27.8635 16.5987 27.706 16.4827 27.5277 16.4133C27.3493 16.344 27.149 16.3237 26.9649 16.3756C26.7223 16.4439 26.5231 16.6351 26.4184 16.8642C26.3137 17.0933 26.2944 17.3561 26.3355 17.6049C26.3885 17.9258 26.5352 18.2237 26.7007 18.5038C26.8876 18.8201 27.1041 19.1246 27.3864 19.3597C27.681 19.6052 28.0373 19.767 28.336 20.0072L28.3358 20.0072Z" fill="#020204"/>
<g filter="url(#filter16_f_7571_17932)">
<path d="M27.1855 19.2494L27.3082 19.3599C27.6081 19.6053 27.7679 19.8808 28.072 20.1212C28.5696 20.5144 29.0747 21.1932 29.1723 21.8131C29.2486 22.2967 29.1478 22.5594 29.0247 23.1296C28.9016 23.6998 28.5528 24.5072 28.3643 25.057C28.2891 25.2763 28.5165 25.1858 28.4867 25.4169C28.4717 25.5304 28.4708 25.6453 28.4838 25.7591L28.4896 25.693C28.5258 25.3779 28.6223 25.0748 28.7276 24.7776C28.9299 24.2054 29.1622 23.6449 29.3223 23.0578C29.4825 22.4707 29.4646 22.0484 29.3812 21.5439C29.2761 20.9096 28.9071 20.3239 28.3845 19.9372C28.0148 19.6638 27.5791 19.4885 27.1858 19.2494H27.1855Z" fill="#838384"/>
</g>
<g opacity="0.25" filter="url(#filter17_f_7571_17932)">
<path d="M19.564 18.8939C19.6457 19.0163 19.5133 19.4384 21.4153 19.1683C21.4153 19.1683 21.0813 19.205 20.752 19.281C20.2402 19.4524 19.7941 19.6439 19.4501 19.8976C19.1092 20.1484 18.8597 20.4758 18.5469 20.757C18.5469 20.757 19.0534 19.8315 19.1796 19.553C19.3058 19.2745 19.1584 19.2879 19.2584 18.877C19.3584 18.4662 19.6027 18.0731 19.6027 18.0731C19.6027 18.0731 19.4032 18.6523 19.564 18.8938V18.8939Z" fill="url(#paint17_radial_7571_17932)"/>
</g>
<g opacity="0.42" filter="url(#filter18_f_7571_17932)">
<path d="M25.6808 18.7835C25.2931 19.0534 25.066 19.0215 24.5957 19.0743C24.1253 19.1271 22.8525 19.108 22.8525 19.108C22.8525 19.108 23.0368 19.1046 23.4453 19.1806C23.8537 19.2567 24.6867 19.3294 25.1558 19.508C25.6248 19.6866 25.7959 19.7375 26.081 19.9177C26.4867 20.1743 26.7846 20.5762 27.1725 20.8574C27.1725 20.8574 27.1913 20.4843 27.0346 20.2057C26.878 19.9271 26.4562 19.4879 26.3332 19.0778C26.2101 18.6677 26.1505 17.8622 26.1505 17.8622C26.1505 17.8622 26.0685 18.5133 25.6808 18.7833L25.6808 18.7835Z" fill="url(#paint18_radial_7571_17932)"/>
</g>
<g opacity="0.2" filter="url(#filter19_f_7571_17932)">
<path d="M22.0356 18.2067L21.9796 18.5557C21.9684 18.6128 21.9559 18.6698 21.9346 18.7239C21.9133 18.7779 21.8829 18.8293 21.8398 18.8681C21.8021 18.9022 21.756 18.9257 21.7097 18.9469C21.5291 19.0296 21.3358 19.0845 21.1387 19.1091L21.3745 19.1307C21.4239 19.1361 21.4734 19.1421 21.5216 19.1545C21.5698 19.1668 21.6168 19.1866 21.6569 19.2151C21.7009 19.2472 21.7355 19.2913 21.7614 19.3393C21.8128 19.4351 21.83 19.5452 21.8395 19.6526C21.8516 19.791 21.8525 19.9306 21.8422 20.0691C21.8515 19.9764 21.8709 19.8846 21.9 19.7961C21.9525 19.6365 22.0369 19.487 22.1507 19.3634C22.1958 19.3144 22.2455 19.2694 22.3001 19.231C22.4694 19.1129 22.6768 19.0625 22.8814 19.0895C22.6738 19.098 22.4697 19.0346 22.3035 18.9102C22.2197 18.8471 22.1468 18.7685 22.0962 18.6768C22.0176 18.533 21.996 18.3649 22.0359 18.2059L22.0356 18.2067Z" fill="url(#paint19_radial_7571_17932)"/>
</g>
<g opacity="0.1" filter="url(#filter20_f_7571_17932)">
<path d="M21.5398 20.9414C21.441 21.3175 21.3731 21.7011 21.3369 22.0884C21.2857 22.6356 21.298 23.1867 21.2686 23.7356C21.2445 24.2014 21.189 24.672 21.2699 25.1314C21.3084 25.3505 21.3778 25.564 21.4751 25.764C21.4906 25.6877 21.5019 25.6105 21.509 25.533C21.5433 25.1605 21.4806 24.7869 21.4594 24.4135C21.4223 23.759 21.5129 23.104 21.5498 22.4503C21.5781 21.9476 21.5747 21.4437 21.5397 20.9415L21.5398 20.9414Z" fill="black"/>
</g>
<g filter="url(#filter21_f_7571_17932)">
<path d="M26.0529 15.3004C25.8792 15.4587 26.1343 15.6963 26.2553 15.9755C26.3305 16.1491 26.5387 16.3937 26.7399 16.3546C26.8913 16.3251 26.9852 16.1071 26.9709 15.9537C26.9433 15.6572 26.6932 15.5879 26.5117 15.4861C26.3679 15.4055 26.1748 15.1894 26.053 15.3006L26.0529 15.3004Z" fill="#838384"/>
</g>
<g opacity="0.2" filter="url(#filter22_f_7571_17932)">
<path d="M31.6259 28.2561C31.5877 28.3817 31.5307 28.5011 31.4568 28.6105C31.2934 28.8524 31.0563 29.0346 30.8193 29.2025C30.4151 29.489 29.9941 29.7519 29.618 30.0782C29.3658 30.2963 29.1362 30.5409 28.9231 30.7984C28.7409 31.0185 28.5697 31.2499 28.3621 31.4457C28.1526 31.6433 27.9059 31.8029 27.6401 31.8899C27.3169 31.9957 26.9754 31.9906 26.664 31.9108C26.4458 31.8549 26.2331 31.7576 26.098 31.5817C25.9623 31.4051 25.9183 31.1678 25.9026 30.9348C25.8748 30.5227 25.9241 30.1017 25.9689 29.6836C26.0061 29.3361 26.0405 28.9883 26.0547 28.6415C26.0794 28.0107 26.0384 27.3854 25.953 26.7718C25.9388 26.669 25.9232 26.5655 25.9318 26.4596C25.9405 26.3538 25.976 26.2437 26.0503 26.162C26.1189 26.0865 26.2147 26.0418 26.3101 26.0198C26.4056 25.9978 26.5024 25.9957 26.5983 25.9941C26.8243 25.9881 27.0517 25.9748 27.2743 25.9946C27.4148 26.0071 27.5526 26.0327 27.6928 26.0462C27.927 26.0687 28.1697 26.0569 28.4045 25.9881C28.6573 25.914 28.8983 25.775 29.1552 25.7369C29.2606 25.7212 29.3664 25.723 29.4687 25.7374C29.5732 25.752 29.6773 25.7809 29.7576 25.8447C29.8187 25.8932 29.8634 25.9598 29.8984 26.0308C29.9503 26.1366 29.9825 26.2533 30.0006 26.373C30.0169 26.4791 30.0226 26.5883 30.05 26.6909C30.0949 26.8596 30.1968 27.0031 30.3195 27.1199C30.4422 27.2367 30.5855 27.329 30.7287 27.4199C30.8714 27.5104 31.0148 27.6004 31.1671 27.675C31.2387 27.7101 31.3122 27.7417 31.3805 27.7821C31.4488 27.8225 31.5125 27.8721 31.5578 27.9376C31.6194 28.0264 31.6441 28.1427 31.6256 28.2569" fill="url(#paint20_linear_7571_17932)"/>
</g>
<path d="M33.2287 28.5568C33.1749 28.695 33.098 28.8241 33.0025 28.9375C32.7917 29.1877 32.4989 29.3528 32.2075 29.5014C31.7102 29.7548 31.1951 29.9772 30.7277 30.282C30.4145 30.4863 30.1255 30.7261 29.8552 30.9843C29.6241 31.2053 29.4049 31.4412 29.1457 31.6285C28.8841 31.8173 28.5818 31.9541 28.2628 32.002C27.8748 32.0603 27.4739 31.9849 27.114 31.8282C26.8619 31.7184 26.6195 31.5612 26.4743 31.3277C26.3286 31.0933 26.2953 30.8065 26.2949 30.5304C26.2943 30.0422 26.3847 29.5584 26.4699 29.0785C26.5406 28.6791 26.6081 28.2788 26.6515 27.8755C26.7304 27.142 26.7299 26.4011 26.6772 25.6652C26.6691 25.542 26.658 25.4176 26.6765 25.2954C26.695 25.1732 26.7452 25.0514 26.8388 24.9708C26.9253 24.8964 27.0412 24.8635 27.1553 24.8572C27.2694 24.851 27.383 24.869 27.4959 24.8855C27.7621 24.9244 28.0303 24.955 28.2905 25.0234C28.4546 25.0666 28.6145 25.1247 28.7783 25.1689C29.0516 25.2428 29.3379 25.2781 29.6191 25.2453C29.922 25.21 30.216 25.0961 30.5208 25.1035C30.6459 25.1066 30.7699 25.1302 30.8892 25.1678C31.0109 25.2062 31.131 25.2612 31.2205 25.3522C31.2884 25.4213 31.3358 25.5084 31.3715 25.5988C31.4245 25.7333 31.453 25.8765 31.4652 26.0206C31.4761 26.1481 31.4743 26.2772 31.4985 26.403C31.5383 26.6098 31.6469 26.7985 31.7819 26.9601C31.917 27.1217 32.0792 27.2589 32.2395 27.3945C32.4002 27.5295 32.5617 27.6641 32.7349 27.7824C32.8162 27.838 32.9001 27.8901 32.9773 27.9511C33.0545 28.0122 33.1255 28.0834 33.1737 28.1692C33.2392 28.2857 33.2592 28.4269 33.2286 28.5569L33.2287 28.5568Z" fill="url(#paint21_linear_7571_17932)"/>
<g filter="url(#filter23_f_7571_17932)">
<path d="M32.9785 28.3036C32.9288 28.4282 32.859 28.5438 32.772 28.6459C32.579 28.8719 32.3117 29.0198 32.0459 29.1528C31.5918 29.3801 31.1218 29.58 30.6947 29.8545C30.4092 30.038 30.1452 30.2535 29.8979 30.486C29.6866 30.6846 29.4862 30.897 29.2499 31.065C29.0105 31.2353 28.7343 31.358 28.4436 31.4008C28.0893 31.453 27.7238 31.3853 27.3946 31.2445C27.1651 31.1463 26.9433 31.0059 26.8104 30.7946C26.6781 30.5844 26.6473 30.3263 26.6465 30.0779C26.6454 29.6388 26.7283 29.2046 26.8064 28.7726C26.8712 28.4135 26.9329 28.0537 26.9722 27.691C27.0437 27.0316 27.0403 26.3656 26.9956 25.7039C26.9882 25.593 26.9796 25.4811 26.9966 25.3713C27.0136 25.2616 27.0591 25.1522 27.1433 25.0797C27.2223 25.0117 27.3283 24.9819 27.4325 24.9764C27.5367 24.9709 27.6403 24.9878 27.7434 25.0029C27.9862 25.0387 28.2312 25.0656 28.4688 25.1269C28.6186 25.1656 28.7648 25.2178 28.9143 25.2576C29.1641 25.3243 29.4254 25.3561 29.6823 25.3264C29.9586 25.2945 30.2275 25.1923 30.5057 25.1989C30.6198 25.2017 30.7331 25.223 30.8423 25.2568C30.9534 25.291 31.0633 25.3398 31.1448 25.4225C31.2063 25.4848 31.2488 25.5634 31.2827 25.6442C31.3329 25.7645 31.3656 25.893 31.3683 26.0234C31.3711 26.1595 31.3413 26.2961 31.3598 26.4309C31.3747 26.5404 31.4211 26.6437 31.4803 26.737C31.5395 26.8304 31.6115 26.9146 31.683 26.9989C31.8209 27.162 31.9593 27.3281 32.1323 27.4532C32.3293 27.5957 32.563 27.679 32.7665 27.8121C32.8272 27.8518 32.8859 27.8966 32.9286 27.9551C32.9643 28.0049 32.9875 28.0626 32.9962 28.1232C33.005 28.1839 32.999 28.2458 32.9788 28.3036H32.9785Z" fill="#CD8907"/>
</g>
<g filter="url(#filter24_f_7571_17932)">
<path d="M32.9499 28.1634C32.8946 28.2886 32.823 28.4053 32.7378 28.5089C32.5401 28.7492 32.2732 28.9148 31.9919 29.0209C31.5289 29.1958 31.0236 29.2193 30.5691 29.4185C30.2922 29.5398 30.043 29.7227 29.7905 29.8956C29.5865 30.0352 29.378 30.1699 29.154 30.2675C28.901 30.3779 28.6319 30.4397 28.3619 30.4833C28.1902 30.511 28.0164 30.5312 27.843 30.5216C27.6695 30.512 27.4955 30.4714 27.3425 30.383C27.2265 30.3159 27.1222 30.2194 27.0601 30.0941C26.9912 29.9549 26.9793 29.7916 26.9809 29.6338C26.9852 29.2134 27.0752 28.7976 27.0724 28.3773C27.07 28.0114 26.9976 27.6502 26.9767 27.285C26.9366 26.5826 27.0874 25.868 26.9547 25.179C26.9336 25.0687 26.9049 24.9585 26.9063 24.8459C26.907 24.7894 26.9155 24.733 26.9352 24.6808C26.955 24.6287 26.9869 24.5813 27.0293 24.5484C27.0651 24.5206 27.1074 24.5038 27.1508 24.4962C27.1942 24.4886 27.2387 24.4901 27.2823 24.4969C27.3694 24.5104 27.4524 24.5446 27.5371 24.5698C27.7797 24.6421 28.036 24.6405 28.2824 24.6951C28.4371 24.7293 28.587 24.7852 28.7401 24.8271C28.9972 24.8964 29.2653 24.9274 29.529 24.8964C29.8127 24.8633 30.0897 24.7603 30.3749 24.7677C30.4918 24.7707 30.6079 24.7925 30.7206 24.8262C30.8334 24.8598 30.9461 24.9073 31.0314 24.9935C31.0929 25.0556 31.137 25.135 31.173 25.2172C31.2253 25.3372 31.2617 25.4677 31.2609 25.6001C31.2605 25.6691 31.2499 25.7375 31.2438 25.806C31.2376 25.8745 31.2357 25.945 31.252 26.0117C31.2684 26.0783 31.3029 26.1391 31.3423 26.1938C31.3817 26.2486 31.4263 26.2987 31.467 26.3524C31.581 26.5026 31.6625 26.6776 31.7513 26.8464C31.8401 27.0152 31.9398 27.1823 32.0801 27.3038C32.271 27.4693 32.5188 27.5354 32.7316 27.6661C32.7941 27.7044 32.8544 27.7493 32.8982 27.8106C32.9333 27.86 32.9564 27.9181 32.9654 27.9796C32.9744 28.0411 32.969 28.104 32.9497 28.1627L32.9499 28.1634Z" fill="#F5C021"/>
</g>
<g filter="url(#filter25_f_7571_17932)">
<path d="M26.9062 25.2449C27.1694 25.1737 27.3935 25.3732 27.5844 25.5239C27.7077 25.6291 27.8859 25.6026 28.0373 25.6076C28.2879 25.5985 28.5374 25.6496 28.7882 25.6185C29.2818 25.5767 29.7657 25.4554 30.2617 25.4337C30.4987 25.4188 30.7646 25.405 30.9693 25.5434C31.0523 25.6009 31.1739 25.8438 31.2557 25.7527C31.222 25.4974 31.0327 25.2501 30.7786 25.1821C30.5797 25.1508 30.3769 25.2054 30.1768 25.1877C29.5805 25.1735 28.9884 25.0628 28.3907 25.0946C27.9748 25.0982 27.5594 25.0789 27.1443 25.0627C26.9812 25.0293 26.9236 25.1743 26.835 25.2298" fill="url(#paint22_linear_7571_17932)"/>
</g>
<g opacity="0.75" filter="url(#filter26_f_7571_17932)">
<path d="M28.0866 20.3906C28.182 20.3758 28.7708 20.8764 28.6903 21.0632C28.6098 21.25 28.4586 21.1371 28.3504 21.1383C28.2422 21.1396 27.9462 21.2739 27.8967 21.1891C27.8471 21.1044 28.0276 20.9064 28.122 20.7409C28.1981 20.6077 27.9911 20.4063 28.0866 20.3915L28.0866 20.3906Z" fill="#7C7C7C"/>
</g>
<g opacity="0.25" filter="url(#filter27_f_7571_17932)">
<path d="M19.7775 17.2398C19.768 17.1245 19.6033 17.1072 19.5298 17.1647C19.4678 17.2134 19.4096 17.3793 19.4631 17.4442C19.5501 17.5495 19.7905 17.3981 19.7775 17.24L19.7775 17.2398Z" fill="#7C7C7C"/>
</g>
<g opacity="0.35" filter="url(#filter28_f_7571_17932)">
<path d="M30.4559 25.6459C30.4106 25.5573 30.3284 25.4911 30.2365 25.4528C30.1447 25.4145 30.044 25.4022 29.9446 25.403C29.7458 25.4046 29.5481 25.4563 29.3501 25.4391C29.1828 25.4247 29.024 25.3618 28.8601 25.3221C28.6916 25.2819 28.5129 25.2659 28.3455 25.3106C28.1667 25.3593 28.0089 25.4788 27.9101 25.6356C27.823 25.7737 27.7816 25.9371 27.7687 26.0999C27.7559 26.2627 27.7698 26.4265 27.7862 26.5891C27.7981 26.7068 27.8114 26.8245 27.8399 26.9394C27.8683 27.0543 27.9125 27.1662 27.9818 27.262C28.0814 27.3998 28.2294 27.4981 28.3891 27.5572C28.6528 27.6536 28.9429 27.6485 29.203 27.543C29.6577 27.3456 30.0425 26.9915 30.2771 26.5548C30.3611 26.3985 30.4263 26.2319 30.4685 26.0596C30.4852 25.9911 30.4983 25.9212 30.499 25.8507C30.4996 25.7802 30.4872 25.7085 30.4551 25.6459H30.4559Z" fill="url(#paint23_radial_7571_17932)"/>
</g>
<g opacity="0.35" filter="url(#filter29_f_7571_17932)">
<path d="M30.4559 25.5531C30.4106 25.4891 30.3284 25.4412 30.2365 25.4135C30.1447 25.3858 30.044 25.3769 29.9446 25.3775C29.7458 25.3787 29.5481 25.4161 29.3501 25.4036C29.1828 25.3932 29.024 25.3477 28.8601 25.319C28.6916 25.29 28.5129 25.2784 28.3455 25.3107C28.1667 25.3459 28.0089 25.4323 27.9101 25.5456C27.823 25.6455 27.7816 25.7636 27.7687 25.8813C27.7559 25.999 27.7698 26.1175 27.7862 26.235C27.7981 26.32 27.8114 26.4052 27.8399 26.4882C27.8683 26.5713 27.9125 26.6522 27.9818 26.7214C28.0814 26.8211 28.2294 26.8921 28.3891 26.9348C28.6528 27.0045 28.9429 27.0008 29.203 26.9246C29.6577 26.7819 30.0425 26.5259 30.2771 26.2102C30.3611 26.0972 30.4263 25.9767 30.4685 25.8522C30.4852 25.8026 30.4983 25.7522 30.499 25.7012C30.4996 25.6502 30.4872 25.5984 30.4551 25.5531H30.4559Z" fill="url(#paint24_radial_7571_17932)"/>
</g>
<path d="M30.8337 24.8175C30.8012 24.7288 30.7439 24.6502 30.6739 24.5869C30.6038 24.5236 30.5212 24.4751 30.4342 24.4381C30.2603 24.3642 30.0711 24.3369 29.8854 24.3019L29.3609 24.1993C29.1786 24.1683 28.9899 24.1485 28.8094 24.1893C28.6515 24.2248 28.5054 24.3065 28.3859 24.4158C28.2664 24.5251 28.173 24.6613 28.1059 24.8094C27.9877 25.0689 27.9505 25.3609 27.9731 25.6452C27.9899 25.8567 28.0433 26.0746 28.1827 26.2348C28.2952 26.3642 28.4548 26.4449 28.6193 26.4935C28.9025 26.5773 29.2111 26.5729 29.4917 26.4811C29.9584 26.3233 30.362 26.0198 30.6429 25.6151C30.7345 25.4826 30.8126 25.3381 30.848 25.1811C30.875 25.0606 30.876 24.9336 30.8337 24.8184V24.8175Z" fill="#020204"/>
<g filter="url(#filter30_f_7571_17932)">
<path d="M28.9079 24.1047C28.8642 24.1071 28.8206 24.1122 28.7774 24.1198C28.4986 24.1694 28.2434 24.3456 28.0996 24.5893C27.9981 24.7631 27.9517 24.9635 27.9666 25.1642C27.9724 25.0243 28.0092 24.8873 28.077 24.7649C28.1922 24.5575 28.4009 24.401 28.6344 24.3583C28.779 24.3319 28.9262 24.3478 29.0713 24.3658C29.2105 24.3832 29.3508 24.4014 29.488 24.4311C29.7001 24.4771 29.9101 24.5476 30.0882 24.6722C30.1296 24.7011 30.1685 24.734 30.2011 24.7726C30.2337 24.8111 30.2591 24.856 30.2689 24.9056C30.2832 24.9782 30.2625 25.0545 30.2263 25.119C30.1902 25.1835 30.1408 25.24 30.0882 25.2922C30.0456 25.3344 30.0002 25.3752 29.9551 25.4151C30.1608 25.3752 30.369 25.3188 30.54 25.1992C30.6123 25.1486 30.6777 25.088 30.7207 25.0109C30.7637 24.9339 30.7819 24.8406 30.7609 24.7549C30.7467 24.6971 30.7151 24.6439 30.6756 24.5993C30.636 24.5547 30.5888 24.518 30.54 24.4838C30.3247 24.3331 30.0729 24.2364 29.812 24.2051C29.6449 24.1743 29.4762 24.1484 29.3075 24.1272C29.1755 24.1106 29.0408 24.0972 28.9083 24.1047L28.9079 24.1047Z" fill="url(#paint25_radial_7571_17932)"/>
</g>
<g filter="url(#filter31_f_7571_17932)">
<path d="M28.9079 24.1047C28.8642 24.1071 28.8206 24.1122 28.7774 24.1198C28.4986 24.1694 28.2434 24.3456 28.0996 24.5893C27.9981 24.7631 27.9517 24.9635 27.9666 25.1642C27.9724 25.0243 28.0092 24.8873 28.077 24.7649C28.1922 24.5575 28.4009 24.401 28.6344 24.3583C28.779 24.3319 28.9262 24.3478 29.0713 24.3658C29.2105 24.3832 29.3508 24.4014 29.488 24.4311C29.7001 24.4771 29.9101 24.5476 30.0882 24.6722C30.1296 24.7011 30.1685 24.734 30.2011 24.7726C30.2337 24.8111 30.2591 24.856 30.2689 24.9056C30.2832 24.9782 30.2625 25.0545 30.2263 25.119C30.1902 25.1835 30.1408 25.24 30.0882 25.2922C30.0456 25.3344 30.0002 25.3752 29.9551 25.4151C30.1608 25.3752 30.369 25.3188 30.54 25.1992C30.6123 25.1486 30.6777 25.088 30.7207 25.0109C30.7637 24.9339 30.7819 24.8406 30.7609 24.7549C30.7467 24.6971 30.7151 24.6439 30.6756 24.5993C30.636 24.5547 30.5888 24.518 30.54 24.4838C30.3247 24.3331 30.0729 24.2364 29.812 24.2051C29.6449 24.1743 29.4762 24.1484 29.3075 24.1272C29.1755 24.1106 29.0408 24.0972 28.9083 24.1047L28.9079 24.1047Z" fill="url(#paint26_linear_7571_17932)"/>
</g>
<path d="M19.7722 16.7113L18.4127 18.4133C18.1289 18.7652 17.8383 19.1198 17.6536 19.5324C17.4948 19.8869 17.4198 20.272 17.3109 20.645C17.1874 21.0685 17.0196 21.4781 16.8313 21.877C16.6574 22.2454 16.4658 22.6051 16.2738 22.9645C16.1342 23.2259 15.9922 23.4931 15.9438 23.7855C15.9055 24.0165 15.9277 24.255 15.9867 24.4817C16.0457 24.7084 16.1393 24.9243 16.2468 25.1329C16.7021 26.0226 17.3852 26.7896 18.1943 27.3762C18.5614 27.6425 18.9548 27.8727 19.3674 28.0612C19.5909 28.1632 19.8264 28.2543 20.0721 28.2586C20.195 28.2607 20.319 28.2405 20.4315 28.1911C20.544 28.1417 20.6444 28.0622 20.7113 27.9592C20.7935 27.8324 20.8214 27.6749 20.8049 27.5248C20.7884 27.3746 20.7298 27.2313 20.6512 27.1022C20.4584 26.7871 20.1559 26.5592 19.8642 26.3332C19.2344 25.8452 18.6251 25.3306 18.0421 24.7875C17.8774 24.6341 17.7129 24.476 17.5978 24.2827C17.4858 24.0944 17.4253 23.8799 17.3843 23.6647C17.2718 23.0742 17.3007 22.453 17.5016 21.8866C17.5801 21.665 17.6839 21.4534 17.7842 21.2407C17.9577 20.872 18.1222 20.4963 18.3506 20.1588C18.6348 19.7387 19.0147 19.3828 19.2463 18.9315C19.4418 18.5507 19.521 18.1223 19.5967 17.7009L19.7722 16.7113Z" fill="#020204"/>
<g style="mix-blend-mode:multiply" opacity="0.95" filter="url(#filter32_f_7571_17932)">
<path d="M18.4727 19.9123C18.286 20.0843 18.1249 20.2823 17.9945 20.5002C17.7801 20.8585 17.6539 21.2608 17.4982 21.6482C17.3822 21.9366 17.2471 22.226 17.2309 22.5364C17.2226 22.6957 17.2462 22.855 17.2515 23.0145C17.2569 23.1741 17.2421 23.3399 17.1632 23.4792C17.0979 23.5957 16.9892 23.6872 16.8633 23.7317C17.0343 23.7894 17.1838 23.8976 17.2919 24.0422C17.3814 24.1627 17.4387 24.3037 17.5165 24.4319C17.5797 24.5361 17.6573 24.6327 17.7529 24.7086C17.8485 24.7845 17.9626 24.8388 18.0837 24.8543C18.167 24.8644 18.2515 24.8564 18.3314 24.8308C18.4113 24.8053 18.4848 24.7628 18.5468 24.7063C18.3921 23.2574 18.5338 21.7775 18.9605 20.3842C18.9874 20.2963 19.0157 20.2077 19.0224 20.1159C19.029 20.0242 19.0119 19.9273 18.9562 19.8542C18.9265 19.8152 18.8865 19.7843 18.8413 19.7652C18.7962 19.7461 18.746 19.7391 18.6975 19.7449C18.649 19.7508 18.6019 19.7695 18.5625 19.7988C18.5232 19.828 18.4917 19.8676 18.472 19.9124L18.4727 19.9123Z" fill="#7C7C7C"/>
</g>
<path d="M16.4845 24.4713C16.6131 24.4181 16.7575 24.4083 16.8942 24.4336C17.031 24.4588 17.1601 24.5179 17.2753 24.596C17.5053 24.7523 17.676 24.9798 17.8395 25.2049C18.2148 25.7218 18.5761 26.2495 18.9035 26.798C19.1691 27.2429 19.4131 27.7023 19.72 28.1198C19.9204 28.3923 20.1464 28.6452 20.3477 28.9168C20.549 29.1885 20.7275 29.4837 20.8168 29.8099C20.9329 30.2339 20.8879 30.7011 20.6861 31.0915C20.5442 31.3663 20.3266 31.6018 20.0618 31.7615C19.797 31.9212 19.4858 32.0037 19.1768 31.9921C18.6856 31.9736 18.2369 31.7282 17.7802 31.5462C16.85 31.1757 15.8393 31.0594 14.8804 30.7708C14.5855 30.6821 14.2959 30.5772 13.9991 30.4956C13.8673 30.4595 13.7332 30.4275 13.6087 30.3711C13.4841 30.3147 13.3677 30.2305 13.2984 30.1126C13.2449 30.0215 13.2223 29.9142 13.2237 29.8085C13.2251 29.7028 13.2499 29.5984 13.2859 29.499C13.3579 29.3003 13.4741 29.1203 13.5526 28.9241C13.6807 28.6035 13.7038 28.2502 13.6865 27.9054C13.6692 27.5606 13.6134 27.219 13.5897 26.8747C13.5793 26.721 13.5752 26.5652 13.6046 26.4139C13.6339 26.2626 13.699 26.1147 13.8101 26.0078C13.9124 25.9092 14.0483 25.8508 14.1873 25.8217C14.3264 25.7926 14.4697 25.7914 14.6118 25.7945C14.7539 25.7977 14.8962 25.8053 15.0379 25.7937C15.1796 25.7822 15.3217 25.7503 15.4452 25.6798C15.5625 25.6128 15.6584 25.5131 15.738 25.4039C15.8175 25.2948 15.8818 25.1753 15.9476 25.0574C16.0135 24.9394 16.0816 24.8218 16.1679 24.7179C16.2542 24.6139 16.3599 24.5232 16.4847 24.4715L16.4845 24.4713Z" fill="url(#paint27_linear_7571_17932)"/>
<g filter="url(#filter33_f_7571_17932)">
<path d="M16.6868 24.6931C16.8037 24.646 16.9353 24.6409 17.0582 24.6687C17.181 24.6965 17.2952 24.7571 17.3946 24.8331C17.5937 24.9869 17.732 25.2038 17.8649 25.4172C18.1838 25.934 18.4955 26.4562 18.79 26.9891C19.0131 27.3902 19.2259 27.7999 19.5 28.1684C19.6818 28.4128 19.8894 28.6368 20.075 28.8784C20.2607 29.1199 20.4261 29.383 20.5083 29.6763C20.614 30.0544 20.5712 30.4717 20.3882 30.8197C20.2557 31.0707 20.0557 31.2798 19.8109 31.4233C19.5654 31.566 19.2842 31.6353 19.0005 31.6232C18.5508 31.6025 18.1401 31.3778 17.7168 31.2255C16.9051 30.931 16.0255 30.8915 15.1929 30.6616C14.8945 30.5806 14.6035 30.4725 14.3036 30.3969C14.1709 30.3634 14.0359 30.3361 13.9098 30.2829C13.7838 30.2296 13.665 30.1471 13.5967 30.0286C13.5458 29.9405 13.5255 29.8368 13.5286 29.7351C13.5318 29.6334 13.5576 29.5342 13.5929 29.4383C13.6654 29.2481 13.7793 29.0768 13.8524 28.886C13.9632 28.5989 13.9769 28.2832 13.9563 27.9761C13.9358 27.6691 13.8824 27.3648 13.8637 27.0576C13.8554 26.9202 13.8541 26.7812 13.8819 26.6466C13.9097 26.5119 13.9683 26.3815 14.0662 26.2841C14.1723 26.1789 14.3185 26.1215 14.4661 26.099C14.6136 26.0765 14.7638 26.0863 14.9123 26.0996C15.0609 26.1128 15.21 26.1295 15.359 26.1206C15.508 26.1117 15.6591 26.0754 15.7824 25.9915C15.8946 25.9156 15.9789 25.8048 16.043 25.6864C16.1071 25.568 16.1529 25.441 16.2017 25.3155C16.2506 25.19 16.3035 25.0647 16.3802 24.954C16.4569 24.8433 16.5599 24.7447 16.686 24.6941" fill="#D99A03"/>
</g>
<g filter="url(#filter34_f_7571_17932)">
<path d="M16.5792 24.4011C16.6925 24.3449 16.8258 24.3334 16.95 24.3587C17.0742 24.384 17.1893 24.4447 17.2871 24.5241C17.4827 24.6818 17.6069 24.9087 17.7225 25.1304C17.9881 25.6396 18.2353 26.1599 18.5531 26.6394C18.7836 26.9866 19.0495 27.3114 19.2827 27.6575C19.5989 28.127 19.8559 28.6434 19.962 29.1965C20.0333 29.5686 20.0311 29.9697 19.8518 30.3056C19.7337 30.5262 19.5425 30.708 19.3165 30.8204C19.0905 30.9328 18.831 30.9795 18.5782 30.9572C18.1802 30.9221 17.8187 30.7264 17.4441 30.5899C16.7793 30.3477 16.0609 30.2899 15.3767 30.1071C15.0882 30.03 14.8064 29.9308 14.5131 29.8704C14.3841 29.8434 14.2525 29.8239 14.1294 29.7773C14.0062 29.7308 13.8895 29.6538 13.8265 29.5399C13.7823 29.4597 13.7673 29.3659 13.774 29.275C13.7806 29.1841 13.8077 29.0955 13.8435 29.0114C13.9148 28.843 14.0202 28.6887 14.0764 28.5146C14.1578 28.2589 14.1244 27.9816 14.0633 27.7203C14.0021 27.4591 13.9141 27.2028 13.887 26.9361C13.875 26.8174 13.8752 26.6963 13.9023 26.5799C13.9293 26.4636 13.9848 26.3518 14.0718 26.2683C14.1837 26.1609 14.3404 26.1074 14.4962 26.0924C14.652 26.0774 14.8089 26.0979 14.9637 26.12C15.1186 26.1421 15.2745 26.1673 15.4309 26.1594C15.5873 26.1516 15.7464 26.1113 15.869 26.0155C15.9901 25.9209 16.0663 25.7799 16.11 25.634C16.1537 25.4881 16.1678 25.3356 16.1857 25.1846C16.2036 25.0336 16.2259 24.8812 16.2845 24.7405C16.3432 24.5997 16.442 24.47 16.5802 24.4015L16.5792 24.4011Z" fill="#F5BD0C"/>
</g>
<g filter="url(#filter35_f_7571_17932)">
<path d="M17.9971 25.6724C18.2064 26.051 18.3342 26.4855 18.5417 26.8674C18.7328 27.2186 18.9502 27.5803 19.1443 27.9042C19.2306 28.0484 19.4321 28.2701 19.6359 28.6141C19.8205 28.9258 20.0069 29.361 20.1113 29.5071C20.0513 29.336 19.9281 28.8767 19.7811 28.5493C19.6445 28.2432 19.4838 28.0687 19.3853 27.9042C19.1912 27.5803 18.9822 27.2891 18.7828 26.9803C18.5076 26.5544 18.2978 26.0777 17.9971 25.6724V25.6724Z" fill="url(#paint28_linear_7571_17932)"/>
</g>
</g>
</g>
<defs>
<filter id="filter0_d_7571_17932" x="0.5" y="0" width="42.5" height="42.5" filterUnits="userSpaceOnUse" color-interpolation-filters="sRGB">
<feFlood flood-opacity="0" result="BackgroundImageFix"/>
<feColorMatrix in="SourceAlpha" type="matrix" values="0 0 0 0 0 0 0 0 0 0 0 0 0 0 0 0 0 0 127 0" result="hardAlpha"/>
<feOffset dx="-2" dy="2"/>
<feGaussianBlur stdDeviation="0.25"/>
<feComposite in2="hardAlpha" operator="out"/>
<feColorMatrix type="matrix" values="0 0 0 0 0.227451 0 0 0 0 0.482353 0 0 0 0 0.835294 0 0 0 0.4 0"/>
<feBlend mode="normal" in2="BackgroundImageFix" result="effect1_dropShadow_7571_17932"/>
<feBlend mode="normal" in="SourceGraphic" in2="effect1_dropShadow_7571_17932" result="shape"/>
</filter>
<filter id="filter1_f_7571_17932" x="19.5124" y="13.8803" width="6.88334" height="4.78288" filterUnits="userSpaceOnUse" color-interpolation-filters="sRGB">
<feFlood flood-opacity="0" result="BackgroundImageFix"/>
<feBlend mode="normal" in="SourceGraphic" in2="BackgroundImageFix" result="shape"/>
<feGaussianBlur stdDeviation="0.436168" result="effect1_foregroundBlur_7571_17932"/>
</filter>
<filter id="filter2_f_7571_17932" x="19.9566" y="14.1453" width="5.68446" height="3.00123" filterUnits="userSpaceOnUse" color-interpolation-filters="sRGB">
<feFlood flood-opacity="0" result="BackgroundImageFix"/>
<feBlend mode="normal" in="SourceGraphic" in2="BackgroundImageFix" result="shape"/>
<feGaussianBlur stdDeviation="0.191623" result="effect1_foregroundBlur_7571_17932"/>
</filter>
<filter id="filter3_f_7571_17932" x="19.7645" y="12.6891" width="6.01001" height="3.60937" filterUnits="userSpaceOnUse" color-interpolation-filters="sRGB">
<feFlood flood-opacity="0" result="BackgroundImageFix"/>
<feBlend mode="normal" in="SourceGraphic" in2="BackgroundImageFix" result="shape"/>
<feGaussianBlur stdDeviation="0.291564" result="effect1_foregroundBlur_7571_17932"/>
</filter>
<filter id="filter4_f_7571_17932" x="23.4066" y="8.32057" width="3.04122" height="2.97225" filterUnits="userSpaceOnUse" color-interpolation-filters="sRGB">
<feFlood flood-opacity="0" result="BackgroundImageFix"/>
<feBlend mode="normal" in="SourceGraphic" in2="BackgroundImageFix" result="shape"/>
<feGaussianBlur stdDeviation="0.429496" result="effect1_foregroundBlur_7571_17932"/>
</filter>
<filter id="filter5_f_7571_17932" x="23.9607" y="12.8261" width="0.517082" height="0.442863" filterUnits="userSpaceOnUse" color-interpolation-filters="sRGB">
<feFlood flood-opacity="0" result="BackgroundImageFix"/>
<feBlend mode="normal" in="SourceGraphic" in2="BackgroundImageFix" result="shape"/>
<feGaussianBlur stdDeviation="0.0533428" result="effect1_foregroundBlur_7571_17932"/>
</filter>
<filter id="filter6_f_7571_17932" x="23.8479" y="12.363" width="1.00528" height="0.997106" filterUnits="userSpaceOnUse" color-interpolation-filters="sRGB">
<feFlood flood-opacity="0" result="BackgroundImageFix"/>
<feBlend mode="normal" in="SourceGraphic" in2="BackgroundImageFix" result="shape"/>
<feGaussianBlur stdDeviation="0.111184" result="effect1_foregroundBlur_7571_17932"/>
</filter>
<filter id="filter7_f_7571_17932" x="24.1798" y="11.0003" width="1.35924" height="1.26415" filterUnits="userSpaceOnUse" color-interpolation-filters="sRGB">
<feFlood flood-opacity="0" result="BackgroundImageFix"/>
<feBlend mode="normal" in="SourceGraphic" in2="BackgroundImageFix" result="shape"/>
<feGaussianBlur stdDeviation="0.0317057" result="effect1_foregroundBlur_7571_17932"/>
</filter>
<filter id="filter8_f_7571_17932" x="20.866" y="11.1629" width="1.26803" height="1.1285" filterUnits="userSpaceOnUse" color-interpolation-filters="sRGB">
<feFlood flood-opacity="0" result="BackgroundImageFix"/>
<feBlend mode="normal" in="SourceGraphic" in2="BackgroundImageFix" result="shape"/>
<feGaussianBlur stdDeviation="0.0289208" result="effect1_foregroundBlur_7571_17932"/>
</filter>
<filter id="filter9_f_7571_17932" x="20.8437" y="12.4416" width="0.861471" height="1.11611" filterUnits="userSpaceOnUse" color-interpolation-filters="sRGB">
<feFlood flood-opacity="0" result="BackgroundImageFix"/>
<feBlend mode="normal" in="SourceGraphic" in2="BackgroundImageFix" result="shape"/>
<feGaussianBlur stdDeviation="0.109899" result="effect1_foregroundBlur_7571_17932"/>
</filter>
<filter id="filter10_f_7571_17932" x="21.1451" y="14.968" width="1.8856" height="1.55528" filterUnits="userSpaceOnUse" color-interpolation-filters="sRGB">
<feFlood flood-opacity="0" result="BackgroundImageFix"/>
<feBlend mode="normal" in="SourceGraphic" in2="BackgroundImageFix" result="shape"/>
<feGaussianBlur stdDeviation="0.192591" result="effect1_foregroundBlur_7571_17932"/>
</filter>
<filter id="filter11_f_7571_17932" x="20.2084" y="13.7355" width="4.89954" height="2.49109" filterUnits="userSpaceOnUse" color-interpolation-filters="sRGB">
<feFlood flood-opacity="0" result="BackgroundImageFix"/>
<feBlend mode="normal" in="SourceGraphic" in2="BackgroundImageFix" result="shape"/>
<feGaussianBlur stdDeviation="0.162385" result="effect1_foregroundBlur_7571_17932"/>
</filter>
<filter id="filter12_f_7571_17932" x="22.0181" y="13.7753" width="1.74412" height="1.98326" filterUnits="userSpaceOnUse" color-interpolation-filters="sRGB">
<feFlood flood-opacity="0" result="BackgroundImageFix"/>
<feBlend mode="normal" in="SourceGraphic" in2="BackgroundImageFix" result="shape"/>
<feGaussianBlur stdDeviation="0.18188" result="effect1_foregroundBlur_7571_17932"/>
</filter>
<filter id="filter13_f_7571_17932" x="22.6765" y="13.5709" width="0.549338" height="0.33303" filterUnits="userSpaceOnUse" color-interpolation-filters="sRGB">
<feFlood flood-opacity="0" result="BackgroundImageFix"/>
<feBlend mode="normal" in="SourceGraphic" in2="BackgroundImageFix" result="shape"/>
<feGaussianBlur stdDeviation="0.0235651" result="effect1_foregroundBlur_7571_17932"/>
</filter>
<filter id="filter14_f_7571_17932" x="21.6013" y="13.6122" width="0.276878" height="0.295676" filterUnits="userSpaceOnUse" color-interpolation-filters="sRGB">
<feFlood flood-opacity="0" result="BackgroundImageFix"/>
<feBlend mode="normal" in="SourceGraphic" in2="BackgroundImageFix" result="shape"/>
<feGaussianBlur stdDeviation="0.0235651" result="effect1_foregroundBlur_7571_17932"/>
</filter>
<filter id="filter15_f_7571_17932" x="24.6066" y="14.1725" width="0.756539" height="0.860543" filterUnits="userSpaceOnUse" color-interpolation-filters="sRGB">
<feFlood flood-opacity="0" result="BackgroundImageFix"/>
<feBlend mode="normal" in="SourceGraphic" in2="BackgroundImageFix" result="shape"/>
<feGaussianBlur stdDeviation="0.073168" result="effect1_foregroundBlur_7571_17932"/>
</filter>
<filter id="filter16_f_7571_17932" x="26.6011" y="18.6649" width="3.42678" height="7.67861" filterUnits="userSpaceOnUse" color-interpolation-filters="sRGB">
<feFlood flood-opacity="0" result="BackgroundImageFix"/>
<feBlend mode="normal" in="SourceGraphic" in2="BackgroundImageFix" result="shape"/>
<feGaussianBlur stdDeviation="0.292242" result="effect1_foregroundBlur_7571_17932"/>
</filter>
<filter id="filter17_f_7571_17932" x="18.2509" y="17.7771" width="3.46014" height="3.27582" filterUnits="userSpaceOnUse" color-interpolation-filters="sRGB">
<feFlood flood-opacity="0" result="BackgroundImageFix"/>
<feBlend mode="normal" in="SourceGraphic" in2="BackgroundImageFix" result="shape"/>
<feGaussianBlur stdDeviation="0.147995" result="effect1_foregroundBlur_7571_17932"/>
</filter>
<filter id="filter18_f_7571_17932" x="22.365" y="17.3746" width="5.29548" height="3.97041" filterUnits="userSpaceOnUse" color-interpolation-filters="sRGB">
<feFlood flood-opacity="0" result="BackgroundImageFix"/>
<feBlend mode="normal" in="SourceGraphic" in2="BackgroundImageFix" result="shape"/>
<feGaussianBlur stdDeviation="0.243791" result="effect1_foregroundBlur_7571_17932"/>
</filter>
<filter id="filter19_f_7571_17932" x="20.8023" y="17.8696" width="2.41584" height="2.53584" filterUnits="userSpaceOnUse" color-interpolation-filters="sRGB">
<feFlood flood-opacity="0" result="BackgroundImageFix"/>
<feBlend mode="normal" in="SourceGraphic" in2="BackgroundImageFix" result="shape"/>
<feGaussianBlur stdDeviation="0.168169" result="effect1_foregroundBlur_7571_17932"/>
</filter>
<filter id="filter20_f_7571_17932" x="20.608" y="20.3219" width="1.57992" height="6.06173" filterUnits="userSpaceOnUse" color-interpolation-filters="sRGB">
<feFlood flood-opacity="0" result="BackgroundImageFix"/>
<feBlend mode="normal" in="SourceGraphic" in2="BackgroundImageFix" result="shape"/>
<feGaussianBlur stdDeviation="0.309774" result="effect1_foregroundBlur_7571_17932"/>
</filter>
<filter id="filter21_f_7571_17932" x="25.6081" y="14.8834" width="1.75059" height="1.86143" filterUnits="userSpaceOnUse" color-interpolation-filters="sRGB">
<feFlood flood-opacity="0" result="BackgroundImageFix"/>
<feBlend mode="normal" in="SourceGraphic" in2="BackgroundImageFix" result="shape"/>
<feGaussianBlur stdDeviation="0.193019" result="effect1_foregroundBlur_7571_17932"/>
</filter>
<filter id="filter22_f_7571_17932" x="24.9354" y="24.7667" width="7.6555" height="8.16246" filterUnits="userSpaceOnUse" color-interpolation-filters="sRGB">
<feFlood flood-opacity="0" result="BackgroundImageFix"/>
<feBlend mode="normal" in="SourceGraphic" in2="BackgroundImageFix" result="shape"/>
<feGaussianBlur stdDeviation="0.479548" result="effect1_foregroundBlur_7571_17932"/>
</filter>
<filter id="filter23_f_7571_17932" x="24.5989" y="22.9278" width="10.4487" height="10.5382" filterUnits="userSpaceOnUse" color-interpolation-filters="sRGB">
<feFlood flood-opacity="0" result="BackgroundImageFix"/>
<feBlend mode="normal" in="SourceGraphic" in2="BackgroundImageFix" result="shape"/>
<feGaussianBlur stdDeviation="1.0238" result="effect1_foregroundBlur_7571_17932"/>
</filter>
<filter id="filter24_f_7571_17932" x="25.2928" y="22.8776" width="9.29036" height="9.25984" filterUnits="userSpaceOnUse" color-interpolation-filters="sRGB">
<feFlood flood-opacity="0" result="BackgroundImageFix"/>
<feBlend mode="normal" in="SourceGraphic" in2="BackgroundImageFix" result="shape"/>
<feGaussianBlur stdDeviation="0.806721" result="effect1_foregroundBlur_7571_17932"/>
</filter>
<filter id="filter25_f_7571_17932" x="26.6297" y="24.8525" width="4.83136" height="1.12567" filterUnits="userSpaceOnUse" color-interpolation-filters="sRGB">
<feFlood flood-opacity="0" result="BackgroundImageFix"/>
<feBlend mode="normal" in="SourceGraphic" in2="BackgroundImageFix" result="shape"/>
<feGaussianBlur stdDeviation="0.102615" result="effect1_foregroundBlur_7571_17932"/>
</filter>
<filter id="filter26_f_7571_17932" x="26.9066" y="19.4082" width="2.77375" height="2.79108" filterUnits="userSpaceOnUse" color-interpolation-filters="sRGB">
<feFlood flood-opacity="0" result="BackgroundImageFix"/>
<feBlend mode="normal" in="SourceGraphic" in2="BackgroundImageFix" result="shape"/>
<feGaussianBlur stdDeviation="0.491044" result="effect1_foregroundBlur_7571_17932"/>
</filter>
<filter id="filter27_f_7571_17932" x="19.1683" y="16.8587" width="0.884202" height="0.894578" filterUnits="userSpaceOnUse" color-interpolation-filters="sRGB">
<feFlood flood-opacity="0" result="BackgroundImageFix"/>
<feBlend mode="normal" in="SourceGraphic" in2="BackgroundImageFix" result="shape"/>
<feGaussianBlur stdDeviation="0.137066" result="effect1_foregroundBlur_7571_17932"/>
</filter>
<filter id="filter28_f_7571_17932" x="26.5451" y="24.0652" width="5.17241" height="4.77934" filterUnits="userSpaceOnUse" color-interpolation-filters="sRGB">
<feFlood flood-opacity="0" result="BackgroundImageFix"/>
<feBlend mode="normal" in="SourceGraphic" in2="BackgroundImageFix" result="shape"/>
<feGaussianBlur stdDeviation="0.609264" result="effect1_foregroundBlur_7571_17932"/>
</filter>
<filter id="filter29_f_7571_17932" x="27.2912" y="24.8188" width="3.68033" height="2.63822" filterUnits="userSpaceOnUse" color-interpolation-filters="sRGB">
<feFlood flood-opacity="0" result="BackgroundImageFix"/>
<feBlend mode="normal" in="SourceGraphic" in2="BackgroundImageFix" result="shape"/>
<feGaussianBlur stdDeviation="0.236245" result="effect1_foregroundBlur_7571_17932"/>
</filter>
<filter id="filter30_f_7571_17932" x="27.5247" y="23.6634" width="3.684" height="2.19083" filterUnits="userSpaceOnUse" color-interpolation-filters="sRGB">
<feFlood flood-opacity="0" result="BackgroundImageFix"/>
<feBlend mode="normal" in="SourceGraphic" in2="BackgroundImageFix" result="shape"/>
<feGaussianBlur stdDeviation="0.219584" result="effect1_foregroundBlur_7571_17932"/>
</filter>
<filter id="filter31_f_7571_17932" x="27.5247" y="23.6634" width="3.684" height="2.19083" filterUnits="userSpaceOnUse" color-interpolation-filters="sRGB">
<feFlood flood-opacity="0" result="BackgroundImageFix"/>
<feBlend mode="normal" in="SourceGraphic" in2="BackgroundImageFix" result="shape"/>
<feGaussianBlur stdDeviation="0.219584" result="effect1_foregroundBlur_7571_17932"/>
</filter>
<filter id="filter32_f_7571_17932" x="16.3783" y="19.2579" width="3.13018" height="6.08562" filterUnits="userSpaceOnUse" color-interpolation-filters="sRGB">
<feFlood flood-opacity="0" result="BackgroundImageFix"/>
<feBlend mode="normal" in="SourceGraphic" in2="BackgroundImageFix" result="shape"/>
<feGaussianBlur stdDeviation="0.242506" result="effect1_foregroundBlur_7571_17932"/>
</filter>
<filter id="filter33_f_7571_17932" x="11.8471" y="22.9705" width="10.3996" height="10.3353" filterUnits="userSpaceOnUse" color-interpolation-filters="sRGB">
<feFlood flood-opacity="0" result="BackgroundImageFix"/>
<feBlend mode="normal" in="SourceGraphic" in2="BackgroundImageFix" result="shape"/>
<feGaussianBlur stdDeviation="0.840631" result="effect1_foregroundBlur_7571_17932"/>
</filter>
<filter id="filter34_f_7571_17932" x="12.7377" y="23.3112" width="8.30286" height="8.68616" filterUnits="userSpaceOnUse" color-interpolation-filters="sRGB">
<feFlood flood-opacity="0" result="BackgroundImageFix"/>
<feBlend mode="normal" in="SourceGraphic" in2="BackgroundImageFix" result="shape"/>
<feGaussianBlur stdDeviation="0.517366" result="effect1_foregroundBlur_7571_17932"/>
</filter>
<filter id="filter35_f_7571_17932" x="17.8385" y="25.5138" width="2.43132" height="4.15177" filterUnits="userSpaceOnUse" color-interpolation-filters="sRGB">
<feFlood flood-opacity="0" result="BackgroundImageFix"/>
<feBlend mode="normal" in="SourceGraphic" in2="BackgroundImageFix" result="shape"/>
<feGaussianBlur stdDeviation="0.0792644" result="effect1_foregroundBlur_7571_17932"/>
</filter>
<linearGradient id="paint0_linear_7571_17932" x1="11.2273" y1="7.31037" x2="32.4674" y2="43.9871" gradientUnits="userSpaceOnUse">
<stop offset="0.331091" stop-color="white" stop-opacity="0.26"/>
<stop offset="1" stop-color="#3A7BD5" stop-opacity="0.16"/>
</linearGradient>
<radialGradient id="paint1_radial_7571_17932" cx="0" cy="0" r="1" gradientUnits="userSpaceOnUse" gradientTransform="translate(321.317 460.602) rotate(-2.41003) scale(19.9939 48.9379)">
<stop stop-color="#FEFEFC"/>
<stop offset="0.757" stop-color="#FEFEFC"/>
<stop offset="1" stop-color="#D4D4D4"/>
</radialGradient>
<radialGradient id="paint2_radial_7571_17932" cx="0" cy="0" r="1" gradientUnits="userSpaceOnUse" gradientTransform="translate(321.317 460.602) rotate(-2.41003) scale(19.9939 48.9379)">
<stop stop-color="#FEFEFC"/>
<stop offset="0.757" stop-color="#FEFEFC"/>
<stop offset="1" stop-color="#D4D4D4"/>
</radialGradient>
<radialGradient id="paint3_radial_7571_17932" cx="0" cy="0" r="1" gradientUnits="userSpaceOnUse" gradientTransform="translate(330.764 24.1297) rotate(-9.34942) scale(40.7759 17.4901)">
<stop stop-color="#C8C8C8"/>
<stop offset="1" stop-color="#797978"/>
</radialGradient>
<radialGradient id="paint4_radial_7571_17932" cx="0" cy="0" r="1" gradientUnits="userSpaceOnUse" gradientTransform="translate(568.028 482.025) rotate(-1.81001) scale(35.7961 51.7286)">
<stop stop-color="#FEFEFC"/>
<stop offset="0.757" stop-color="#FEFEFC"/>
<stop offset="1" stop-color="#D4D4D4"/>
</radialGradient>
<radialGradient id="paint5_radial_7571_17932" cx="0" cy="0" r="1" gradientUnits="userSpaceOnUse" gradientTransform="translate(568.028 482.025) rotate(-1.81001) scale(35.7961 51.7286)">
<stop stop-color="#FEFEFC"/>
<stop offset="0.757" stop-color="#FEFEFC"/>
<stop offset="1" stop-color="#D4D4D4"/>
</radialGradient>
<linearGradient id="paint6_linear_7571_17932" x1="363.472" y1="343.934" x2="430.385" y2="398.897" gradientUnits="userSpaceOnUse">
<stop stop-color="#747474"/>
<stop offset="0.125" stop-color="#8C8C8C"/>
<stop offset="0.25" stop-color="#A4A4A4"/>
<stop offset="0.5" stop-color="#D4D4D4"/>
<stop offset="0.619" stop-color="#D4D4D4"/>
<stop offset="1" stop-color="#7C7C7C"/>
</linearGradient>
<radialGradient id="paint7_radial_7571_17932" cx="0" cy="0" r="1" gradientUnits="userSpaceOnUse" gradientTransform="translate(605.236 -148.372) rotate(-36.0085) scale(32.7951 21.7557)">
<stop stop-color="#020204"/>
<stop offset="0.734" stop-color="#020204"/>
<stop offset="1" stop-color="#5C5C5C"/>
</radialGradient>
<linearGradient id="paint8_linear_7571_17932" x1="193.914" y1="85.9252" x2="197.615" y2="90.3727" gradientUnits="userSpaceOnUse">
<stop stop-color="#949494" stop-opacity="0.392"/>
<stop offset="0.5" stop-color="#949494"/>
<stop offset="1" stop-color="#949494" stop-opacity="0.392"/>
</linearGradient>
<linearGradient id="paint9_linear_7571_17932" x1="43.3606" y1="131.129" x2="59.5694" y2="147.712" gradientUnits="userSpaceOnUse">
<stop stop-color="#646464" stop-opacity="0"/>
<stop offset="0.306" stop-color="#646464" stop-opacity="0.583"/>
<stop offset="0.47" stop-color="#646464"/>
<stop offset="0.728" stop-color="#646464" stop-opacity="0.257"/>
<stop offset="1" stop-color="#646464" stop-opacity="0"/>
</linearGradient>
<linearGradient id="paint10_linear_7571_17932" x1="-8.77523" y1="119.251" x2="4.74918" y2="134.07" gradientUnits="userSpaceOnUse">
<stop stop-color="#646464" stop-opacity="0"/>
<stop offset="0.306" stop-color="#646464" stop-opacity="0.583"/>
<stop offset="0.47" stop-color="#646464"/>
<stop offset="0.728" stop-color="#646464" stop-opacity="0.257"/>
<stop offset="1" stop-color="#646464" stop-opacity="0"/>
</linearGradient>
<linearGradient id="paint11_linear_7571_17932" x1="90.2202" y1="102.011" x2="94.8251" y2="107.141" gradientUnits="userSpaceOnUse">
<stop stop-color="#757574" stop-opacity="0"/>
<stop offset="0.263" stop-color="#757574"/>
<stop offset="0.5" stop-color="#757574"/>
<stop offset="1" stop-color="#757574" stop-opacity="0"/>
</linearGradient>
<radialGradient id="paint12_radial_7571_17932" cx="0" cy="0" r="1" gradientUnits="userSpaceOnUse" gradientTransform="translate(1482.93 -229.612) rotate(-22.428) scale(154.517 53.682)">
<stop stop-color="#D2940A"/>
<stop offset="0.751" stop-color="#D89C08"/>
<stop offset="0.866" stop-color="#B67E07"/>
<stop offset="1" stop-color="#946106"/>
</radialGradient>
<linearGradient id="paint13_linear_7571_17932" x1="247.371" y1="400.078" x2="520.969" y2="395.832" gradientUnits="userSpaceOnUse">
<stop stop-color="#AD780A"/>
<stop offset="0.12" stop-color="#D89E08"/>
<stop offset="0.255" stop-color="#EDB80B"/>
<stop offset="0.392" stop-color="#EBC80D"/>
<stop offset="0.527" stop-color="#F5D838"/>
<stop offset="0.769" stop-color="#F6D811"/>
<stop offset="1" stop-color="#F5CD31"/>
</linearGradient>
<radialGradient id="paint14_radial_7571_17932" cx="0" cy="0" r="1" gradientUnits="userSpaceOnUse" gradientTransform="translate(58.068 34.1592) scale(1.4698 0.449975)">
<stop stop-color="#3A2903"/>
<stop offset="0.555" stop-color="#735208"/>
<stop offset="1" stop-color="#AC8C04"/>
</radialGradient>
<radialGradient id="paint15_radial_7571_17932" cx="0" cy="0" r="1" gradientUnits="userSpaceOnUse" gradientTransform="translate(33.1817 45.5855) scale(0.280451 0.332461)">
<stop stop-color="#3A2903"/>
<stop offset="0.555" stop-color="#735208"/>
<stop offset="1" stop-color="#AC8C04"/>
</radialGradient>
<linearGradient id="paint16_linear_7571_17932" x1="126.367" y1="103.481" x2="126.659" y2="104.991" gradientUnits="userSpaceOnUse">
<stop stop-color="#F5CE2D"/>
<stop offset="1" stop-color="#D79B08"/>
</linearGradient>
<radialGradient id="paint17_radial_7571_17932" cx="0" cy="0" r="1" gradientUnits="userSpaceOnUse" gradientTransform="translate(-628.306 470.104) rotate(180) scale(54.8767 56.117)">
<stop/>
<stop offset="1" stop-opacity="0.25"/>
</radialGradient>
<radialGradient id="paint18_radial_7571_17932" cx="0" cy="0" r="1" gradientUnits="userSpaceOnUse" gradientTransform="translate(1348.31 558.001) scale(118.347 62.6277)">
<stop/>
<stop offset="1" stop-opacity="0.25"/>
</radialGradient>
<radialGradient id="paint19_radial_7571_17932" cx="0" cy="0" r="1" gradientUnits="userSpaceOnUse" gradientTransform="translate(478.135 465.868) scale(18.8998 21.6047)">
<stop/>
<stop offset="1" stop-opacity="0.25"/>
</radialGradient>
<linearGradient id="paint20_linear_7571_17932" x1="188.174" y1="2048.25" x2="213.211" y2="2219.94" gradientUnits="userSpaceOnUse">
<stop/>
<stop offset="1" stop-opacity="0"/>
</linearGradient>
<linearGradient id="paint21_linear_7571_17932" x1="3097.45" y1="2687.23" x2="3446.68" y2="2138.24" gradientUnits="userSpaceOnUse">
<stop stop-color="#3E2A06"/>
<stop offset="1" stop-color="#AD780A"/>
</linearGradient>
<linearGradient id="paint22_linear_7571_17932" x1="226.495" y1="232.164" x2="226.33" y2="241.376" gradientUnits="userSpaceOnUse">
<stop stop-color="#F3CD0C"/>
<stop offset="1" stop-color="#F3CD0C" stop-opacity="0"/>
</linearGradient>
<radialGradient id="paint23_radial_7571_17932" cx="0" cy="0" r="1" gradientUnits="userSpaceOnUse" gradientTransform="translate(1033.83 1340.08) rotate(15) scale(62.4082 56.096)">
<stop stop-color="#110800"/>
<stop offset="0.591" stop-color="#A65A00" stop-opacity="0.8"/>
<stop offset="1" stop-color="#FF921E" stop-opacity="0"/>
</radialGradient>
<radialGradient id="paint24_radial_7571_17932" cx="0" cy="0" r="1" gradientUnits="userSpaceOnUse" gradientTransform="translate(1033.83 975.788) rotate(10.9628) scale(61.4022 41.2176)">
<stop stop-color="#110800"/>
<stop offset="0.591" stop-color="#A65A00" stop-opacity="0.8"/>
<stop offset="1" stop-color="#FF921E" stop-opacity="0"/>
</radialGradient>
<radialGradient id="paint25_radial_7571_17932" cx="0" cy="0" r="1" gradientUnits="userSpaceOnUse" gradientTransform="translate(392.157 246.737) rotate(23.5217) scale(22.6408 4.89489)">
<stop stop-color="#7C7C7C"/>
<stop offset="1" stop-color="#7C7C7C" stop-opacity="0.33"/>
</radialGradient>
<linearGradient id="paint26_linear_7571_17932" x1="1033.83" y1="390.78" x2="1042.2" y2="390.035" gradientUnits="userSpaceOnUse">
<stop stop-color="#7C7C7C"/>
<stop offset="1" stop-color="#7C7C7C" stop-opacity="0.33"/>
</linearGradient>
<linearGradient id="paint27_linear_7571_17932" x1="955.953" y1="2307.95" x2="1315.51" y2="2917.84" gradientUnits="userSpaceOnUse">
<stop stop-color="#B98309"/>
<stop offset="1" stop-color="#382605"/>
</linearGradient>
<linearGradient id="paint28_linear_7571_17932" x1="379.608" y1="1261.31" x2="449.098" y2="1333.43" gradientUnits="userSpaceOnUse">
<stop stop-color="#EBC40C"/>
<stop offset="1" stop-color="#EBC40C" stop-opacity="0"/>
</linearGradient>
<clipPath id="clip0_7571_17932">
<rect width="24" height="24" fill="white" transform="translate(11 8)"/>
</clipPath>
</defs>
</svg>
