<svg width="12" height="12" viewBox="0 0 12 12" fill="none" xmlns="http://www.w3.org/2000/svg">
<path d="M11.25 5.5876H6.43122V0.750098C6.43122 0.525098 6.24372 0.318848 5.99998 0.318848C5.77497 0.318848 5.56873 0.506348 5.56873 0.750098V5.5876H0.749976C0.524976 5.5876 0.318726 5.7751 0.318726 6.01885C0.318726 6.24385 0.506226 6.4501 0.749976 6.4501H5.58747V11.2501C5.58747 11.4751 5.77497 11.6813 6.01872 11.6813C6.24372 11.6813 6.44998 11.4938 6.44998 11.2501V6.43135H11.25C11.475 6.43135 11.6812 6.24385 11.6812 6.0001C11.6812 5.7751 11.475 5.5876 11.25 5.5876Z" fill="#1FA9EC"/>
</svg>
