 <svg width="60" height="60" viewBox="0 0 60 60" fill="none" xmlns="http://www.w3.org/2000/svg">
                <path d="M40.7492 3.75248L19.9414 24.5602C11.2345 33.289 4.64087 43.8948 0.665615 55.5652C0.476115 56.1172 0.445961 56.7114 0.578609 57.2798C0.711256 57.8482 1.00134 58.3676 1.41561 58.7787L1.42649 58.7896C1.71482 59.0801 2.05775 59.3108 2.43555 59.4683C2.81334 59.6258 3.21855 59.707 3.62786 59.7073C3.97228 59.7071 4.31432 59.6503 4.64036 59.5393C16.3108 55.5641 26.9166 48.9704 35.6454 40.2635L56.4525 19.4559C58.5349 17.3735 59.7048 14.5491 59.7048 11.6042C59.7048 8.65926 58.5349 5.83494 56.4526 3.75254C55.4215 2.72144 54.1974 1.90353 52.8502 1.3455C51.503 0.787467 50.0591 0.50025 48.6009 0.500244C45.656 0.500232 42.8316 1.67009 40.7492 3.75248ZM32.8164 37.4351C24.9517 45.2791 15.4793 51.3239 5.05236 55.1527C8.88088 44.7257 14.9257 35.2532 22.7697 27.3886L35.165 14.9935L45.2115 25.04L32.8164 37.4351ZM53.6241 16.6275L48.0399 22.2116L37.9934 12.1651L43.5776 6.58085C44.2369 5.91961 45.0202 5.39484 45.8825 5.03657C46.7448 4.67829 47.6693 4.49353 48.6031 4.49285C49.5368 4.49218 50.4616 4.6756 51.3244 5.03264C52.1872 5.38967 52.9712 5.91331 53.6315 6.57359C54.2918 7.23388 54.8154 8.01786 55.1724 8.8807C55.5294 9.74353 55.7129 10.6683 55.7122 11.6021C55.7115 12.5358 55.5267 13.4603 55.1684 14.3226C54.8101 15.1849 54.2854 15.9682 53.6241 16.6275Z" fill="white" />
            </svg>
            