  <svg className="transform rotate-180" viewBox="64 64 896 896" focusable="false" data-icon="align-left" width="2em" height="2em" fill="currentColor" aria-hidden="true"><path d="M120 230h496c4.4 0 8-3.6 8-8v-56c0-4.4-3.6-8-8-8H120c-4.4 0-8 3.6-8 8v56c0 4.4 3.6 8 8 8zm0 424h496c4.4 0 8-3.6 8-8v-56c0-4.4-3.6-8-8-8H120c-4.4 0-8 3.6-8 8v56c0 4.4 3.6 8 8 8zm784 140H120c-4.4 0-8 3.6-8 8v56c0 4.4 3.6 8 8 8h784c4.4 0 8-3.6 8-8v-56c0-4.4-3.6-8-8-8zm0-424H120c-4.4 0-8 3.6-8 8v56c0 4.4 3.6 8 8 8h784c4.4 0 8-3.6 8-8v-56c0-4.4-3.6-8-8-8z"></path></svg>
