<svg width="9" height="18" viewBox="0 0 9 18" fill="none" xmlns="http://www.w3.org/2000/svg">
<path d="M0.909975 17.6988C0.719975 17.6988 0.529976 17.6288 0.379976 17.4788C0.0899756 17.1888 0.0899756 16.7088 0.379976 16.4188L6.89998 9.89883C7.37998 9.41883 7.37998 8.63883 6.89998 8.15883L0.379976 1.63883C0.0899756 1.34883 0.0899756 0.868828 0.379976 0.578828C0.669976 0.288828 1.14998 0.288828 1.43998 0.578828L7.95998 7.09883C8.46998 7.60883 8.75998 8.29883 8.75998 9.02883C8.75998 9.75883 8.47998 10.4488 7.95998 10.9588L1.43998 17.4788C1.28998 17.6188 1.09998 17.6988 0.909975 17.6988Z" fill="#FEFEFE"/>
</svg>
