<svg width="25" height="25" viewBox="0 0 25 25" fill="none" xmlns="http://www.w3.org/2000/svg">
                <path d="M18.125 7.92495V6.94995C18.125 3.94995 15.875 1.39995 13.025 1.17495C11.45 1.02495 9.875 1.58745 8.7125 2.63745C7.55 3.68745 6.875 5.18746 6.875 6.72496V7.92495C4.7 8.33745 3.05 10.25 3.05 12.575V19.3625C3.05 21.8375 5.075 23.825 7.5125 23.825H17.4125C19.8875 23.825 21.9125 21.8 21.9125 19.325V12.5C21.95 10.25 20.3 8.37495 18.125 7.92495ZM9.8375 3.87495C10.6625 3.12495 11.75 2.74995 12.875 2.86245C14.8625 3.04995 16.4375 4.84996 16.4375 6.94995V7.81246H8.5625V6.68745C8.5625 5.63745 9.0125 4.62495 9.8375 3.87495ZM20.2625 19.3625C20.2625 20.9 18.9875 22.175 17.45 22.175H7.55C6.0125 22.175 4.775 20.9375 4.775 19.4V12.575C4.775 10.8875 6.125 9.53746 7.8125 9.53746H17.1875C18.875 9.53746 20.2625 10.8875 20.2625 12.5V19.3625Z" fill="white" />
                <path d="M12.5 13.4375C12.05 13.4375 11.6375 13.8125 11.6375 14.3V18.2375C11.6375 18.6875 12.0125 19.1 12.5 19.1C12.95 19.1 13.3625 18.725 13.3625 18.2375V14.2625C13.3625 13.8125 12.95 13.4375 12.5 13.4375Z" fill="white" />
            </svg>