<svg width="43" height="43" viewBox="0 0 43 43" fill="none" xmlns="http://www.w3.org/2000/svg">
<g filter="url(#filter0_d_7571_17924)">
<rect x="3.5" y="0.5" width="39" height="39" rx="7.5" stroke="url(#paint0_linear_7571_17924)" shape-rendering="crispEdges"/>
<path fill-rule="evenodd" clip-rule="evenodd" d="M15.0264 24.8417H14.4677V17.3748H15.0264V24.8417ZM14.7391 15.5445C14.5035 15.5445 14.3086 15.3576 14.3086 15.1219C14.3086 14.8793 14.5025 14.6914 14.7391 14.6914C14.9817 14.6914 15.1746 14.8783 15.1746 15.1219C15.1746 15.3576 14.9817 15.5445 14.7391 15.5445Z" fill="url(#paint1_linear_7571_17924)"/>
<path fill-rule="evenodd" clip-rule="evenodd" d="M20.4543 24.9873C17.7221 24.9873 15.9961 22.9977 15.9961 19.8351C15.9961 16.6883 17.7301 14.6909 20.4543 14.6909C23.1786 14.6909 24.9116 16.6884 24.9116 19.8351C24.9116 22.9979 23.1856 24.9873 20.4543 24.9873ZM20.4543 15.2048C18.0761 15.2048 16.5579 17.0004 16.5579 19.835C16.5579 22.6717 18.0831 24.4742 20.4543 24.4742C22.8325 24.4742 24.3508 22.6717 24.3508 19.835C24.3508 16.9994 22.8325 15.2048 20.4543 15.2048Z" fill="url(#paint2_linear_7571_17924)"/>
<path fill-rule="evenodd" clip-rule="evenodd" d="M28.8903 24.9874C26.8392 24.9874 25.3687 23.8291 25.2852 22.1727H25.833C25.9165 23.5309 27.1922 24.4813 28.9321 24.4813C30.6302 24.4813 31.8154 23.5169 31.8154 22.2144C31.8154 21.1665 31.1084 20.5639 29.4312 20.1414L28.246 19.8501C26.3957 19.3778 25.5556 18.6291 25.5556 17.3754C25.5556 15.8154 27.0121 14.6919 28.8356 14.6919C30.7207 14.6919 32.1285 15.8015 32.1912 17.271H31.6434C31.5668 16.072 30.3956 15.198 28.8216 15.198C27.3164 15.198 26.1172 16.0998 26.1172 17.3614C26.1172 18.3606 26.852 18.9354 28.4597 19.337L29.5762 19.6213C31.5101 20.0996 32.377 20.8423 32.377 22.1726C32.377 23.8289 30.984 24.9873 28.8901 24.9873L28.8903 24.9874Z" fill="url(#paint3_linear_7571_17924)"/>
</g>
<defs>
<filter id="filter0_d_7571_17924" x="0.5" y="0" width="42.5" height="42.5" filterUnits="userSpaceOnUse" color-interpolation-filters="sRGB">
<feFlood flood-opacity="0" result="BackgroundImageFix"/>
<feColorMatrix in="SourceAlpha" type="matrix" values="0 0 0 0 0 0 0 0 0 0 0 0 0 0 0 0 0 0 127 0" result="hardAlpha"/>
<feOffset dx="-2" dy="2"/>
<feGaussianBlur stdDeviation="0.25"/>
<feComposite in2="hardAlpha" operator="out"/>
<feColorMatrix type="matrix" values="0 0 0 0 0.227451 0 0 0 0 0.482353 0 0 0 0 0.835294 0 0 0 0.4 0"/>
<feBlend mode="normal" in2="BackgroundImageFix" result="effect1_dropShadow_7571_17924"/>
<feBlend mode="normal" in="SourceGraphic" in2="effect1_dropShadow_7571_17924" result="shape"/>
</filter>
<linearGradient id="paint0_linear_7571_17924" x1="11.2273" y1="7.31037" x2="32.4674" y2="43.9871" gradientUnits="userSpaceOnUse">
<stop offset="0.331091" stop-color="white" stop-opacity="0.26"/>
<stop offset="1" stop-color="#3A7BD5" stop-opacity="0.16"/>
</linearGradient>
<linearGradient id="paint1_linear_7571_17924" x1="14.7416" y1="14.6914" x2="14.7416" y2="23.5274" gradientUnits="userSpaceOnUse">
<stop stop-color="#0339F1"/>
<stop offset="1" stop-color="#01ADE5"/>
</linearGradient>
<linearGradient id="paint2_linear_7571_17924" x1="17.2452" y1="15.6726" x2="23.4051" y2="21.5625" gradientUnits="userSpaceOnUse">
<stop stop-color="#0756EE"/>
<stop offset="0.37448" stop-color="#00A3F5"/>
<stop offset="0.71708" stop-color="#18B5B6"/>
<stop offset="1" stop-color="#80DF43"/>
</linearGradient>
<linearGradient id="paint3_linear_7571_17924" x1="26.2083" y1="15.0083" x2="33.757" y2="21.2017" gradientUnits="userSpaceOnUse">
<stop stop-color="#20BBA6"/>
<stop offset="0.4988" stop-color="#9BEC23"/>
<stop offset="1" stop-color="#D9EF35"/>
</linearGradient>
</defs>
</svg>
