<svg width="143" height="108" viewBox="0 0 143 108"  fill="none" xmlns="http://www.w3.org/2000/svg">
<path d="M37.7118 75.1024C37.7118 64.0543 36.5085 54.7955 34.0705 47.3548C31.6881 39.9315 28.2623 34.2568 23.7386 30.4236C19.2603 26.5866 13.9637 24.6685 7.89676 24.6685C-1.22305 24.6685 -8.50705 29.0098 -13.9037 37.5087C-19.2918 45.9941 -21.9428 58.5714 -21.9929 75.0998V75.1029C-21.9929 86.292 -20.8148 95.6893 -18.4292 103.267L-18.4268 103.275C-15.9949 110.791 -12.545 116.536 -8.02267 120.416L-8.01786 120.42C-3.49117 124.255 1.82907 126.174 7.89676 126.174C17.0696 126.174 24.3794 121.782 29.7748 113.188C35.1621 104.607 37.7616 91.864 37.7118 75.1024ZM37.7118 75.1024C37.7118 75.1026 37.7118 75.1027 37.7118 75.1029H36.7118M37.7118 75.1024C37.7118 75.1016 37.7118 75.1007 37.7118 75.0999L36.7118 75.1029M36.7118 75.1029C36.7118 64.1174 35.5141 54.9708 33.1192 47.663M36.7118 75.1029C36.7617 91.7931 34.167 104.311 28.9279 112.656C23.6889 121.001 16.6785 125.174 7.89676 125.174C2.05903 125.174 -3.0305 123.335 -7.37147 119.657L33.1192 47.663M33.1192 47.663C30.7741 40.3551 27.4311 34.8624 23.0901 31.1849L33.1192 47.663ZM69.7928 75.1029C69.8427 59.3083 67.3729 45.8713 62.3832 34.7917L69.7928 75.1029ZM69.7928 75.1029C69.7928 90.9915 67.298 104.57 62.3084 115.838L69.7928 75.1029ZM-52.9993 75.106V75.1029C-52.9993 59.4091 -50.5448 46.0951 -45.6764 35.1284C-40.7578 24.1604 -33.7707 15.8603 -24.7271 10.1787L-24.7261 10.1781C-15.6304 4.44829 -4.77028 1.5625 7.89676 1.5625C20.5641 1.5625 31.3982 4.44834 40.4427 10.1768L40.4448 10.1781C49.5403 15.9077 56.5524 24.2329 61.4707 35.2008L61.4714 35.2023C66.3878 46.119 68.8424 59.4068 68.7928 75.0997V75.1029C68.7928 90.8908 66.3133 104.324 61.394 115.433L61.3925 115.437C56.5219 126.548 49.5573 134.989 40.5116 140.811C31.4693 146.63 20.614 149.562 7.90042 149.562C-4.81446 149.516 -15.6978 146.561 -24.7929 140.74C-33.8393 134.918 -40.8292 126.476 -45.7496 115.364C-50.6192 104.255 -53.0488 90.8456 -52.9993 75.106ZM108.973 30.7488L75.3804 50.6467V25.8112L112.603 3.5427H141.788V146.38H111.38V31.6092V30.6092H110.38H109.483H109.209L108.973 30.7488Z" stroke="#1C1C1C" stroke-width="2"/>
</svg>
