<svg width="192" height="112" viewBox="0 0 192 112" fill="none" xmlns="http://www.w3.org/2000/svg">
<path d="M45.4294 75.3524C45.4294 64.3035 44.2164 55.0437 41.7588 47.6021C39.3571 40.1779 35.904 34.5033 31.3453 30.6709C26.8329 26.8351 21.4973 24.9185 15.3864 24.9185C6.20121 24.9185 -1.13816 29.2562 -6.57795 37.7557C-12.0091 46.2418 -14.6813 58.8204 -14.7318 75.3498V75.3529C-14.7318 86.5425 -13.5443 95.9406 -11.1396 103.519L-11.1371 103.527C-8.68565 111.045 -5.20818 116.789 -0.650848 120.669L-0.646027 120.673C3.91519 124.507 9.27469 126.424 15.3864 126.424C24.6249 126.424 31.9904 122.036 37.4289 113.441C42.8593 104.859 45.4796 92.1149 45.4294 75.3524ZM45.4294 75.3524C45.4294 75.3526 45.4294 75.3527 45.4294 75.3529H44.4294M45.4294 75.3524C45.4294 75.3516 45.4294 75.3507 45.4294 75.3499L44.4294 75.3529M44.4294 75.3529C44.4294 64.3674 43.2223 55.2208 40.8084 47.913M44.4294 75.3529C44.4797 92.0431 41.8645 104.561 36.5839 112.906C31.3035 121.251 24.2376 125.424 15.3864 125.424C9.50249 125.424 4.3727 123.585 -0.00260544 119.907L40.8084 47.913M40.8084 47.913C38.4448 40.6051 35.0753 35.1124 30.7 31.4349L40.8084 47.913ZM137.386 78.576L137.377 78.5832L82.7298 126.021V146.63H190.866V123.595H126.991H125.991V122.595V121.605V121.165L126.314 120.868L148.871 100.147L148.884 100.134L148.898 100.123C159.493 91.0841 167.679 83.3603 173.471 76.9468C179.265 70.4855 183.236 64.6622 185.439 59.474L185.442 59.4665C187.705 54.2566 188.829 48.9934 188.829 43.6697C188.829 35.5196 186.599 28.3219 182.15 22.0413C177.69 15.7492 171.431 10.8117 163.326 7.24402L163.319 7.24119C155.276 3.63313 145.791 1.8125 134.837 1.8125C124.194 1.8125 114.836 3.7006 106.742 7.44836C98.6481 11.1961 92.3867 16.4768 87.9218 23.2845C83.6266 29.8337 81.3854 37.5324 81.2297 46.4179H110.24C110.37 42.0731 111.353 38.247 113.223 34.9704L113.223 34.9701C115.234 31.4489 118.096 28.7439 121.786 26.8662L137.386 78.576ZM137.386 78.576L137.394 78.5686M137.386 78.576L137.394 78.5686M137.394 78.5686C142.083 74.3141 146.026 70.4763 149.219 67.0564C152.484 63.6117 154.986 60.2116 156.699 56.8541L156.702 56.8486M137.394 78.5686L156.702 56.8486M156.702 56.8486C158.433 53.4043 159.298 49.6902 159.298 45.7206M156.702 56.8486L159.298 45.7206M159.298 45.7206C159.298 41.3107 158.225 37.4567 156.037 34.2042M159.298 45.7206L156.037 34.2042M156.037 34.2042C153.868 30.9321 150.907 28.4338 147.18 26.7107C143.459 24.9423 139.262 24.07 134.61 24.07C129.757 24.07 125.471 24.9901 121.786 26.8661L156.037 34.2042ZM-45.9992 75.3561V75.3529C-45.9992 59.6601 -43.5255 46.3471 -38.6191 35.3812C-33.6619 24.414 -26.6196 16.1132 -17.5028 10.4306L-17.5017 10.4299C-8.33218 4.69898 2.61648 1.8125 15.3864 1.8125C28.1567 1.8125 39.0791 4.69904 48.1971 10.4287L48.1991 10.4299C57.3682 16.1606 64.4358 24.4864 69.3926 35.4535L69.3933 35.455C74.3482 46.3709 76.8221 59.6577 76.7721 75.3497V75.3529C76.7721 91.1399 74.2731 104.572 69.3152 115.681L69.3137 115.684C64.405 126.794 57.3853 135.236 48.2665 141.059C39.1507 146.879 28.2069 149.812 15.39 149.812C2.57096 149.766 -8.40176 146.81 -17.571 140.987C-26.6895 135.164 -33.7339 126.721 -38.6926 115.612C-43.6004 104.503 -46.0492 91.095 -45.9992 75.3561Z" stroke="url(#paint0_linear_7455_22071)" stroke-width="2"/>
<defs>
<linearGradient id="paint0_linear_7455_22071" x1="-47" y1="75.8125" x2="191.866" y2="75.8125" gradientUnits="userSpaceOnUse">
<stop stop-color="#00D2FF"/>
<stop offset="1" stop-color="#3A7BD5"/>
</linearGradient>
</defs>
</svg>
