<svg width="43" height="43" viewBox="0 0 43 43" fill="none" xmlns="http://www.w3.org/2000/svg">
<g filter="url(#filter0_d_7571_17905)">
<rect x="3.5" y="0.5" width="39" height="39" rx="7.5" stroke="url(#paint0_linear_7571_17905)" shape-rendering="crispEdges"/>
<g clip-path="url(#clip0_7571_17905)">
<path d="M32.0744 8H13.9256C12.3098 8 11 9.30984 11 10.9256V29.0744C11 30.6902 12.3098 32 13.9256 32H32.0744C33.6902 32 35 30.6902 35 29.0744V10.9256C35 9.30984 33.6902 8 32.0744 8ZM21.44 26.7062C21.44 27.4567 20.8316 28.065 20.0812 28.065H15.4789C14.7284 28.065 14.1201 27.4566 14.1201 26.7062V12.6828C14.1201 11.9323 14.7284 11.324 15.4789 11.324H20.0812C20.8317 11.324 21.44 11.9324 21.44 12.6828V26.7062ZM31.88 20.6734C31.88 21.4239 31.2716 22.0322 30.5212 22.0322H25.9189C25.1684 22.0322 24.5601 21.4238 24.5601 20.6734V12.6828C24.5601 11.9323 25.1684 11.324 25.9189 11.324H30.5212C31.2717 11.324 31.88 11.9324 31.88 12.6828V20.6734Z" fill="#518FE1"/>
</g>
</g>
<defs>
<filter id="filter0_d_7571_17905" x="0.5" y="0" width="42.5" height="42.5" filterUnits="userSpaceOnUse" color-interpolation-filters="sRGB">
<feFlood flood-opacity="0" result="BackgroundImageFix"/>
<feColorMatrix in="SourceAlpha" type="matrix" values="0 0 0 0 0 0 0 0 0 0 0 0 0 0 0 0 0 0 127 0" result="hardAlpha"/>
<feOffset dx="-2" dy="2"/>
<feGaussianBlur stdDeviation="0.25"/>
<feComposite in2="hardAlpha" operator="out"/>
<feColorMatrix type="matrix" values="0 0 0 0 0.227451 0 0 0 0 0.482353 0 0 0 0 0.835294 0 0 0 0.4 0"/>
<feBlend mode="normal" in2="BackgroundImageFix" result="effect1_dropShadow_7571_17905"/>
<feBlend mode="normal" in="SourceGraphic" in2="effect1_dropShadow_7571_17905" result="shape"/>
</filter>
<linearGradient id="paint0_linear_7571_17905" x1="11.2273" y1="7.31037" x2="32.4674" y2="43.9871" gradientUnits="userSpaceOnUse">
<stop offset="0.331091" stop-color="white" stop-opacity="0.26"/>
<stop offset="1" stop-color="#3A7BD5" stop-opacity="0.16"/>
</linearGradient>
<clipPath id="clip0_7571_17905">
<rect width="24" height="24" fill="white" transform="translate(11 8)"/>
</clipPath>
</defs>
</svg>
