<svg width="54" height="19" viewBox="0 0 54 19" fill="none" xmlns="http://www.w3.org/2000/svg">
<path d="M53.01 2.44796C52.1273 0.932432 50.506 0 48.7522 0H5.2443C3.49046 0 1.86912 0.932106 0.986497 2.44796L0.800598 2.76734C0.910315 2.61042 2.23929 0.722113 2.5896 2.96627C2.60002 3.01868 2.61044 3.07631 2.61565 3.13882C2.76216 4.26887 2.99754 5.30972 3.30618 6.27764C6.75364 17.1585 19.3763 18.3094 26.9982 18.3094C34.6201 18.3094 47.2428 17.1585 50.6903 6.27764C50.9989 5.30972 51.2343 4.26887 51.3808 3.13882C51.386 3.07598 51.3964 3.01836 51.4068 2.96627C51.7575 0.722113 53.0861 2.61042 53.1959 2.76734L53.01 2.44796Z" fill="url(#paint0_linear_6749_7014)"/>
<defs>
<linearGradient id="paint0_linear_6749_7014" x1="26.9982" y1="19.8161" x2="26.9982" y2="-0.00879035" gradientUnits="userSpaceOnUse">
<stop stop-color="#3A7CD6"/>
<stop offset="0.65625" stop-color="#448CEE"/>
<stop offset="0.833333" stop-color="#01D2FF"/>
<stop offset="1" stop-color="#009EDA"/>
</linearGradient>
</defs>
</svg>
